<?xml version="1.0" encoding="UTF-8"?>
<!DOCTYPE svg PUBLIC "-//W3C//DTD SVG 1.1//EN" "http://www.w3.org/Graphics/SVG/1.1/DTD/svg11.dtd">
<!-- Creator: CorelDRAW X7 -->
<svg xmlns="http://www.w3.org/2000/svg" xml:space="preserve" width="11.2682in" height="10.8316in" version="1.1" style="shape-rendering:geometricPrecision; text-rendering:geometricPrecision; image-rendering:optimizeQuality; fill-rule:evenodd; clip-rule:evenodd"
viewBox="0 0 23451 22542"
 xmlns:xlink="http://www.w3.org/1999/xlink">
 <defs>
  <style type="text/css">
   <![CDATA[
    .fil21 {fill:#FBEBC4}
    .fil101 {fill:#FBE5BC}
    .fil28 {fill:#FBE2B2}
    .fil87 {fill:#FADDAD}
    .fil80 {fill:#FADAA5}
    .fil112 {fill:#F8DCB3}
    .fil103 {fill:#F6CCA6}
    .fil90 {fill:#F6C796}
    .fil50 {fill:#F5D9A8}
    .fil20 {fill:#F5D5A1}
    .fil9 {fill:#F4CB99}
    .fil33 {fill:#F4CB94}
    .fil116 {fill:#F6C445}
    .fil132 {fill:#F3CA8B}
    .fil22 {fill:#F2C584}
    .fil118 {fill:#F2C38A}
    .fil76 {fill:#EED0A9}
    .fil46 {fill:#ECC896}
    .fil79 {fill:#EBC393}
    .fil45 {fill:#ECC383}
    .fil7 {fill:#EBBD83}
    .fil92 {fill:#EBBD7B}
    .fil117 {fill:#E8BC93}
    .fil113 {fill:#E9B837}
    .fil68 {fill:#E8B642}
    .fil26 {fill:#E5AC75}
    .fil57 {fill:#E4B887}
    .fil88 {fill:#E3AA67}
    .fil6 {fill:#E2B372}
    .fil27 {fill:#DAAD6B}
    .fil13 {fill:#DCAC39}
    .fil104 {fill:#D9A986}
    .fil35 {fill:#DBA739}
    .fil55 {fill:#DAA658}
    .fil41 {fill:#D8B478}
    .fil96 {fill:#D9A944}
    .fil128 {fill:#D7AA75}
    .fil73 {fill:#D8A765}
    .fil106 {fill:#D79C66}
    .fil77 {fill:#D18A3A}
    .fil83 {fill:#D6AB3A}
    .fil61 {fill:#D5A53B}
    .fil124 {fill:#D19C3A}
    .fil134 {fill:#D1A951}
    .fil133 {fill:#CB956E}
    .fil86 {fill:#C9943C}
    .fil102 {fill:#C68C56}
    .fil110 {fill:#C9A567}
    .fil51 {fill:#CAA13C}
    .fil38 {fill:#C69A66}
    .fil59 {fill:#C79754}
    .fil85 {fill:#C59347}
    .fil60 {fill:#C28C3C}
    .fil120 {fill:#C59A3D}
    .fil67 {fill:#C2933C}
    .fil125 {fill:#BD843B}
    .fil109 {fill:#BC8C4A}
    .fil82 {fill:#BD8C3C}
    .fil54 {fill:#B88546}
    .fil98 {fill:#B78957}
    .fil69 {fill:#B5843C}
    .fil18 {fill:#B37C3B}
    .fil131 {fill:#AE714C}
    .fil129 {fill:#AB753A}
    .fil31 {fill:#B38B3D}
    .fil95 {fill:#A46B39}
    .fil23 {fill:#AB7D3C}
    .fil62 {fill:#AB833C}
    .fil84 {fill:#A67855}
    .fil72 {fill:#A3743A}
    .fil107 {fill:#9C6538}
    .fil126 {fill:#A98855}
    .fil56 {fill:#AC9255}
    .fil91 {fill:#A37A3C}
    .fil58 {fill:#9B6D39}
    .fil135 {fill:#996944}
    .fil111 {fill:#936237}
    .fil32 {fill:#A3834A}
    .fil40 {fill:#9C743A}
    .fil127 {fill:#8C5E36}
    .fil52 {fill:#835434}
    .fil97 {fill:#9C7B3C}
    .fil14 {fill:#9B7A43}
    .fil136 {fill:#997844}
    .fil122 {fill:#936C39}
    .fil16 {fill:#8C6337}
    .fil39 {fill:#7B4C32}
    .fil65 {fill:#95743A}
    .fil130 {fill:#977A3C}
    .fil8 {fill:#8D6C39}
    .fil94 {fill:#8A6638}
    .fil47 {fill:#825D35}
    .fil121 {fill:#734D31}
    .fil63 {fill:#643D2E}
    .fil25 {fill:#856338}
    .fil114 {fill:#6C462F}
    .fil74 {fill:#8E723B}
    .fil138 {fill:#79593A}
    .fil29 {fill:#7D6237}
    .fil17 {fill:#7A5D36}
    .fil64 {fill:#785A35}
    .fil105 {fill:#765934}
    .fil10 {fill:#735433}
    .fil36 {fill:#6B4C30}
    .fil137 {fill:#694930}
    .fil34 {fill:#7D6538}
    .fil115 {fill:#6D5232}
    .fil19 {fill:#694E31}
    .fil119 {fill:#62462F}
    .fil93 {fill:#674F31}
    .fil81 {fill:#634A30}
    .fil44 {fill:#5A432F}
    .fil75 {fill:#675132}
    .fil78 {fill:#634E31}
    .fil42 {fill:#5D4730}
    .fil43 {fill:#645333}
    .fil4 {fill:#594630}
    .fil99 {fill:#564230}
    .fil49 {fill:#5C4C30}
    .fil89 {fill:#5A4930}
    .fil48 {fill:#503F30}
    .fil53 {fill:#48362D}
    .fil100 {fill:#524230}
    .fil108 {fill:#4C3B2F}
    .fil70 {fill:#554731}
    .fil66 {fill:#4C3E30}
    .fil71 {fill:#493B30}
    .fil0 {fill:#44372F}
    .fil24 {fill:#40332E}
    .fil37 {fill:#453A30}
    .fil11 {fill:#41362F}
    .fil12 {fill:#3B322E}
    .fil3 {fill:#3E342F}
    .fil123 {fill:#3E362F}
    .fil1 {fill:#382F2E}
    .fil5 {fill:#3A342F}
    .fil30 {fill:#362E2D}
    .fil15 {fill:#342F2D}
    .fil2 {fill:#31302D}
   ]]>
  </style>
 </defs>
 <g id="Layer_x0020_1">
  <metadata id="CorelCorpID_0Corel-Layer"/>
  <g id="_1358408146976">
   <path class="fil0" d="M11381 10013c107,231 -360,790 -565,1405 -328,987 -314,660 -587,1483 -162,488 -331,1038 -556,1513l-487 1024c-93,199 -121,230 -55,417l-139 1 -91 330 -128 -3 -114 -30c-117,-131 -347,-168 -522,-255 -24,-43 -118,-179 -118,-179 -115,-230 -6,150 -10,-59 0,-3 4,-18 4,-20l-338 -47c-167,-193 -316,-199 -588,-231l-52 195c-577,71 -256,-235 -812,-342 62,215 -35,138 331,397 138,98 252,185 406,274l72 -44c145,187 652,570 880,719l39 37c-105,141 -570,-404 -1056,-613 -324,-140 -862,-590 -964,-812 255,135 60,90 333,54 -48,-164 34,-98 -156,-218l173 59c469,-32 278,-321 834,-228 477,79 543,-32 864,-275 623,-394 136,-271 746,-656 156,-98 145,-95 315,-181 472,-239 415,-1080 689,-1238 22,201 -18,168 73,333 417,-677 233,-529 277,-908 23,-202 39,-96 115,-302 132,-137 272,-245 405,-415 217,-277 107,-430 244,-596 127,-154 85,-8 212,-226 52,-88 93,-169 132,-256 93,-213 120,-458 266,-595l-72 488z"/>
   <path class="fil1" d="M13231 9203c294,-8 650,339 961,336 15,14 36,14 46,40 35,94 484,143 756,327 222,150 444,324 630,524 603,-9 1091,39 1677,-87 232,-50 1384,-306 1540,-294 535,93 948,-306 1170,-354 72,-525 340,-546 536,-704 -93,-168 -155,207 -141,-289l457 123c-120,201 -95,187 -141,489 -31,205 -16,358 -57,567 -163,-22 -96,-46 -72,85 245,-15 215,69 506,61 209,-6 406,-14 618,-14 -87,335 -689,351 -1009,337 -454,-19 -678,-185 -1197,-82 -735,145 -1442,354 -2207,478 -631,102 -1809,316 -2332,138 -607,-207 -1285,-757 -1869,-760 333,-13 238,-31 349,-279 -154,-117 69,-47 -236,-117 -7,-1 -163,10 -170,10 0,-240 121,-36 165,-235 6,-27 14,-36 18,-54l-104 -91c-255,-190 -265,-103 -602,-92 -15,1 -51,23 -62,3 -13,-23 -47,1 -71,4 35,157 25,149 -9,296l-229 1 -5 -290c457,26 254,28 341,-222l-341 -103c13,-136 84,-145 -64,-341 -122,181 -222,207 -349,372 -208,270 24,269 -259,387l-5 -208c177,-116 224,-364 363,-477 136,-111 396,-257 552,-196 65,183 68,134 -50,289 118,108 60,15 128,188 342,28 433,211 768,234z"/>
   <path class="fil2" d="M8125 5745l-73 144 -319 59c167,-310 328,-659 335,-1026 -1023,-518 -1790,-1046 -1790,-2294l150 -8c172,-783 104,-239 233,-552l213 -579c698,-229 466,-331 806,-323 -5,388 -258,263 -115,549 197,-81 180,-381 209,-591 111,-827 470,-569 965,-466 222,46 306,175 485,325 -106,126 25,121 -313,156l-797 114c57,1 123,-4 178,13 227,68 47,8 137,99l-316 39c71,181 134,-25 263,276 -134,422 -136,-108 -228,444l-190 62 -29 271c-410,262 -364,488 -427,916 -36,247 23,29 -76,256 502,481 81,6 412,284l365 446c295,700 77,992 -78,1386z"/>
   <path class="fil3" d="M9941 362c-158,-78 -25,-60 -207,-32 94,118 28,82 191,119l16 -87zm-1476 -362l-20 0c-317,207 -202,160 -428,452 -241,-29 -309,-129 -788,163 -312,189 -315,330 -428,635 -624,209 -523,428 -523,1378l150 -8c172,-783 104,-239 233,-552l213 -579c698,-229 466,-331 806,-323 -5,388 -258,263 -115,549 197,-81 180,-381 209,-591 111,-827 470,-569 965,-466 222,46 306,175 485,325 -106,126 25,121 -313,156l-797 114c57,1 123,-4 178,13 227,68 47,8 137,99l-316 39c71,181 134,-25 263,276 -134,422 -136,-108 -228,444l-190 62 -29 271c-410,262 -364,488 -427,916 -36,247 23,29 -76,256 502,481 81,6 412,284l365 446c295,700 77,992 -78,1386l89 -4c150,-266 208,-174 333,-403 125,-229 100,-246 336,-370l96 -107 86 -178 -23 -521 -702 -72c-170,-50 -56,8 -103,-112 -149,-37 -291,-173 -297,-322 -120,-114 -196,-180 -103,-405 61,-151 159,-148 293,-166 -87,-739 3,-347 30,-795 259,-155 275,-328 395,-558 111,-211 -7,-49 158,-188 115,-187 -13,-52 166,-155 165,-218 392,-185 649,-198 529,-27 450,80 833,114 -20,-192 -90,-130 -298,-298 345,-271 262,-114 768,-36 -154,-165 -308,-198 -511,-208 66,-169 71,-24 49,-157 -249,-104 -99,36 -333,-168 144,-123 9,-61 214,-102l-309 26c-56,-96 14,-53 -112,-108 -135,-60 -321,-31 -474,-30 -1062,6 -755,25 -890,-224z"/>
   <path class="fil4" d="M9511 12082c-110,277 -382,405 -233,695 157,-50 180,133 223,-433 1,2 -5,216 252,-96 221,110 16,123 232,23l-9 -325 -233 1 144 -141 -56 -332c-71,99 -232,187 -366,216l-494 4c23,-367 139,-650 -344,-658 -255,90 -257,595 -316,742 -71,177 -149,202 53,401 154,151 101,31 218,261 218,12 366,69 546,-44 214,-135 -5,-164 383,-314zm-3552 -123l191 -23c180,177 361,383 452,593l220 220c40,154 137,301 197,419 156,304 90,84 405,259l3 282 -151 46 10 845c167,27 456,80 520,-100 159,-27 151,-14 236,-129 296,-171 110,-170 261,-374 86,-116 87,-61 205,-122 212,-109 79,-20 156,-133 454,-63 626,-359 627,-809l-698 113c-142,30 0,55 -242,31l-61 -272c412,-26 52,57 382,103 80,-152 45,-39 77,-230l-348 -96c-245,-680 -514,-462 -454,-948l261 -107 147 -518 552 2 143 167 40 288c383,-103 -239,-89 607,-42l186 -190 118 395 193 -16c-76,206 -92,100 -115,302 -44,379 140,231 -277,908 -91,-165 -51,-132 -73,-333 -274,158 -217,999 -689,1238 -170,86 -159,83 -315,181 -610,385 -123,262 -746,656 -329,223 -378,202 -805,202 -146,-405 234,-1000 -386,-1294l-132 -101 29 590c-501,-206 -728,-959 -970,-1041l4 280c0,263 58,166 -97,279 13,-300 -29,-558 43,-849 65,-266 62,-491 75,-773 18,-374 53,-1280 10,-1614 -254,102 -278,233 -474,440l16 -138 -161 42c55,-131 672,-763 808,-839 -55,226 -9,131 -186,285 38,195 23,-43 62,157 55,276 -96,1245 18,1804l126 -36z"/>
   <path class="fil5" d="M5167 11939c46,337 -18,885 -114,1322 24,-185 47,-417 68,-675 17,-209 32,-434 46,-647zm-786 2252l-9 16 -16 -1 15 -9 10 -6zm-358 341c-2,12 -4,24 -5,36l-102 151c25,-52 61,-115 103,-182l4 -5zm-223 -2380c38,-179 65,-347 54,-435 26,-197 -15,-40 89,-248l75 -2c216,-40 345,-118 525,-195 -79,71 -164,149 -252,232 -119,111 -243,231 -319,319 -77,87 -106,142 -166,311l-6 18z"/>
   <path class="fil6" d="M14445 8950c350,57 650,330 1007,327l1230 -104c449,2 874,-23 1300,45 331,53 883,-128 1218,-80l781 -158c-95,204 41,116 -207,222l-806 353c-161,50 -315,54 -490,78 -200,28 -213,92 -453,116 -356,35 -644,121 -1010,111 -1128,-33 -963,-263 -1345,-337 -250,-48 -326,2 -965,-151 -576,-138 -391,109 -1282,-296 -134,-61 -249,-133 -382,-189 -246,-103 -167,-147 -399,-255l-15 -18 22 -561c-184,-127 -394,-428 -533,-449 -122,-213 -82,-128 -315,-260 -154,-87 -179,-100 -274,-216 527,20 685,328 882,559 358,418 361,209 507,839 175,98 342,162 489,282 476,387 586,141 1143,382 191,83 382,158 587,180 -197,-76 -637,-199 -690,-420z"/>
   <path class="fil7" d="M2536 15170l-128 380c-304,285 -481,538 -203,835 103,110 46,32 168,28 79,191 -13,23 132,93l199 123c223,296 269,98 445,368l90 350 -50 0c-96,-306 -93,-401 -408,-476l34 438 -184 -59 -76 121 -295 32c-281,533 -288,287 -244,1001 18,299 187,935 -42,1133 -308,2 -84,13 -147,-100 199,3 61,47 161,-83 -52,-296 -5,-81 -128,-173l67 -164c-228,-282 -219,-359 -88,-682 -262,-166 -191,-206 -233,-772 -29,-396 -39,-213 -118,-505 -42,-154 -28,-364 -6,-511 67,337 -193,86 -196,85l25 -540c51,-150 30,-183 157,-240 64,142 89,370 120,545 286,-164 258,-247 300,-598 268,-79 140,0 247,-186 255,-447 255,-1637 591,-2133 72,-276 -54,-243 124,-223 241,1 134,36 256,-288 77,-205 95,-147 150,-294 -213,454 -333,661 -416,1188 -65,411 -415,798 -304,1307z"/>
   <path class="fil8" d="M4522 18378c-133,59 -30,2 -145,135l734 56c378,-119 -280,-2 382,-109 159,-26 26,18 134,-57 -223,-115 -983,-80 -1105,-25zm1453 1c-439,21 -78,6 -372,138 -232,103 -174,-73 -413,166 184,24 470,27 610,85l369 152c147,60 4,-23 139,87 -172,136 -28,82 -250,89l-817 -157 -153 134 -7 301 -141 242c-61,97 -13,-19 -56,131 -6,19 -14,79 -18,99 -23,98 -39,144 -66,250 13,232 -62,389 -16,544l29 150 -223 189c118,110 48,66 102,159l-180 -20c-41,-509 80,-320 158,-632 -262,-19 -38,120 -269,-25 -171,-107 180,-50 -249,-127 36,-31 160,-43 74,-238 -284,170 -19,-21 -209,269l-261 -228c-298,-62 11,-53 -275,-173 -169,-71 -218,-10 -388,-163l249 -50c-7,-257 -58,-222 -144,-422 212,125 127,133 283,297l28 -39c309,138 -38,236 473,289 406,42 314,-91 591,116 -61,-464 -295,-322 -455,-333l-7 -194 363 -131c-70,-136 -50,-127 -154,-113 -299,141 -240,117 -386,-139l935 -76 155 -50c-265,-196 -660,-95 -984,-252l-160 -129 92 -239 548 -92 279 -73 -511 -140 -150 -124c189,-102 148,-70 370,-44 191,126 1244,314 1467,516z"/>
   <path class="fil9" d="M2726 13480c-336,496 -336,1686 -591,2133 -107,186 21,107 -247,186 -42,351 -14,434 -300,598 -31,-175 -56,-403 -120,-545 -127,57 -106,90 -157,240 -227,-116 -47,-59 -239,-144l60 -174 -71 -169 127 -223c0,0 387,23 510,-333 24,-185 -6,-231 7,-388 9,-113 57,-252 75,-399l152 -600 110 -3c41,-237 95,-331 156,-560l670 -1354c50,344 27,752 -39,1088 -184,94 63,-217 -103,647z"/>
   <path class="fil10" d="M8664 13742c184,-333 416,-87 404,-485 -194,-108 -864,-35 -1028,45 -43,188 -19,191 162,322 219,160 222,120 462,118zm-708 -4289l-68 783c172,369 336,195 399,564 193,27 125,44 271,85 239,66 190,-69 349,126l-552 -2 -147 518 -261 107c-60,486 209,268 454,948l348 96c-32,191 3,78 -77,230 -330,-46 30,-129 -382,-103l61 272c242,24 100,-1 242,-31l698 -113c-1,450 -173,746 -627,809 -77,113 56,24 -156,133 -118,61 -119,6 -205,122 -151,204 35,203 -261,374l35 -165c-231,-145 -308,-61 -466,-314 265,58 232,91 485,-6 -9,-309 -210,-292 -337,-652l-165 -33c-92,-97 37,-39 -194,-115l-35 -180c219,90 254,150 528,124 -54,-230 -42,-28 -77,-231 -28,-169 21,-114 -44,-302 136,46 98,20 225,-67 -19,-318 -86,-549 -347,-702l-205 61 -8 368 -145 -84 -4 -205c-244,-170 -254,-231 -462,-393 -383,-299 -171,-292 -96,-621 289,111 -14,80 372,408 177,149 315,312 522,326 -14,-257 -59,-179 39,-401l16 268 364 5c36,-276 -30,-200 -171,-418l-160 -13 24 -162c90,-309 20,-629 86,-1004 76,-426 -103,-500 -192,-857 372,153 157,426 326,447z"/>
   <path class="fil11" d="M3093 19801c170,153 219,92 388,163 286,120 -23,111 275,173 17,690 112,390 261,584l268 422 253 482c-381,159 -138,-24 -478,56 13,193 68,169 176,327 206,299 207,133 265,199l54 210c-171,61 -1305,95 -1500,-5 -25,-209 6,-177 98,-334l53 83c95,161 9,87 106,149l-47 -586c274,57 -42,6 192,123 -5,-160 -102,-314 -244,-415l-393 -755c-58,-152 -165,-634 -155,-801 5,114 248,924 588,982 256,-599 -415,-684 -460,-1246 255,133 49,123 300,189z"/>
   <path class="fil12" d="M8107 16936l104 52c233,264 358,60 643,320 93,-149 41,-71 -53,-197 242,-48 484,-52 722,5l179 -56 -10 -279c139,224 68,518 -128,713 -233,-65 30,-67 -270,-159 -296,204 -106,348 -107,720l-203 22c-54,363 100,64 -54,352 -100,-206 -249,-147 -405,-256 -53,-37 -37,-63 -177,-146 -64,-261 -39,-263 -223,-467 -221,-244 -136,-158 -391,-322 -141,144 -112,96 -254,209l11 23 -157 11c-104,-252 16,-115 -165,-198l4 -64c-364,-238 -139,67 -457,-373 -111,-154 -377,-189 -575,-211 -177,-231 -38,-8 -245,-158 -109,-78 -27,-75 -205,-179l-161 12c-139,-154 -65,-47 -280,-148l240 -97c-91,-56 -187,-126 -295,-155 -284,-74 -68,92 -312,-103l-10 -146c76,-124 -73,-111 146,-29 314,117 248,309 583,146 141,217 19,316 453,284 33,161 116,231 384,326 579,206 986,442 1668,548z"/>
   <path class="fil13" d="M5216 19536l-87 65 356 131 55 -122c152,16 266,4 467,-4l0 70c-53,528 178,49 -163,523 238,123 61,15 131,194l-82 147 197 -65 261 82 -51 166 -241 5c-18,227 -56,118 48,294 -226,-36 -61,-69 -233,9 188,161 150,444 632,127 -225,-290 -127,-20 -331,-232 177,-101 44,-24 125,-173 93,-7 14,17 122,-135 229,248 -39,108 308,293l-66 114c-180,-43 -58,-62 -181,62 260,176 184,61 397,106 206,43 -62,-50 88,48l162 107c39,-228 -31,-277 -25,-465 135,32 61,-81 183,93l-96 445c-160,230 -40,343 -101,640l28 -141c-16,0 -145,-3 -169,-11 -144,-50 -42,4 -168,-94 9,-14 23,-52 31,-40l77 -61c208,-118 32,86 218,-124 -13,-115 10,-73 -45,-149l-62 -63c-247,-213 -166,-110 -336,-39 -101,336 93,70 -14,411 -244,-113 195,200 -57,-69 -7,-7 -17,-25 -26,-33 -10,-10 -24,-25 -34,-33l-89 -54c-237,286 -57,91 -69,505l-115 69c-52,-167 -75,-158 -203,-239l-159 161c-157,-70 -120,-18 -242,-149l-58 -30 -12 -137c483,16 9,40 493,-125 223,-77 321,-46 418,-306 -313,58 -151,127 -500,175l-219 63c-53,27 28,18 -139,77 -66,-320 73,-177 -27,-447l-179 108c13,-274 20,-151 103,-350 -196,-125 -175,2 -265,-229 -108,103 -91,-170 -55,194l-120 1c57,-221 90,-105 13,-265l-161 165 -165 -162c-46,-155 29,-312 16,-544l471 41c-72,-229 -44,-298 -302,-351l-29 -170 141 -242 190 -20 -55 182z"/>
   <path class="fil14" d="M10613 6652l18 183 368 69 528 224c95,116 120,129 274,216 233,132 193,47 315,260 -152,-11 -271,-35 -405,-104 -127,-67 -136,-118 -323,-99 -14,229 -46,258 83,433l39 294 -365 -4 -27 -113c4,174 38,372 27,544 -25,382 -134,238 -201,469l-156 -12 -73 230c-224,35 -240,18 -384,144 5,13 69,318 377,218 85,-28 100,-136 244,-264l4 250 -370 272c-158,-157 -131,-244 -295,-95l-99 -109c-160,2 -345,26 -423,157 0,0 -126,374 -143,419 -325,140 -230,-4 -379,5 -255,120 -7,241 -556,158 -114,-64 69,-108 -345,-241l-142 -58c-12,-5 -29,-18 -43,-28l25 -327c355,254 -118,238 607,333 253,33 480,72 702,-85l49 -450c756,152 204,-429 193,-642 161,100 88,197 345,371 269,62 914,-225 681,-1094l-132 -37 124 -197c126,245 18,203 225,304 80,-442 -189,-637 -442,-930 11,-12 24,-30 30,-37 6,-8 26,-30 32,-38 8,-8 60,-64 75,-75 -141,-304 -165,-344 -112,-690l190 -59 56 127 -192 -98 -4 206z"/>
   <path class="fil15" d="M7484 8867l146 139c89,357 268,431 192,857 -66,375 4,695 -86,1004l-116 77 -252 -444 -306 44 -277 66c-147,-256 15,-258 -219,-493 -156,-157 -48,54 -142,-201 -261,-702 260,-243 302,-1052 233,-181 494,-58 758,3z"/>
   <path class="fil16" d="M5622 13480c-146,453 -117,809 -83,1287l-176 -75c159,-595 -67,-698 -427,-921 27,-57 54,-130 81,-277 12,-64 24,-143 36,-233 96,-437 160,-985 114,-1322l10 -160c101,-152 53,-313 53,-538 -1,-196 38,-355 46,-557 196,-207 220,-338 474,-440 43,334 8,1240 -10,1614 -13,282 -10,507 -75,773 -72,291 -30,549 -43,849z"/>
   <path class="fil17" d="M6651 16072c-260,-141 -85,-135 -313,-123 -38,393 -12,150 277,271 78,32 669,400 969,395l-933 -543zm-814 -140c226,-83 187,-41 214,-217 -233,-34 -212,-59 -214,217zm-183 -1135l327 153c-26,183 47,32 -110,147l60 76c102,222 640,672 964,812 486,209 951,754 1056,613l174 117c-150,77 -38,28 -140,46 -87,15 -53,-17 -137,26 11,7 31,0 37,15 38,102 88,-54 222,134 -682,-106 -1089,-342 -1668,-548 -268,-95 -351,-165 -384,-326 -434,32 -312,-67 -453,-284 -335,163 -269,-29 -583,-146 -219,-82 -70,-95 -146,29l-62 -27 -413 -257c-6,-162 -57,-28 35,-142 105,58 47,-27 168,113l179 67 208 76c-13,-313 66,-301 82,-599l226 -176c274,0 261,74 426,270l-68 -189z"/>
   <path class="fil18" d="M19774 9202l-9 209 -239 103 17 170c-354,30 -1406,329 -2013,442 -1409,264 -1199,-42 -1522,-98 -194,-34 -414,-1 -608,-21 -93,-230 -89,-336 -399,-378 -213,-30 -621,-95 -809,-90 -311,3 -667,-344 -961,-336 -207,-338 -483,-72 -589,-571 232,108 153,152 399,255 133,56 248,128 382,189 891,405 706,158 1282,296 639,153 715,103 965,151 382,74 217,304 1345,337 366,10 654,-76 1010,-111 240,-24 253,-88 453,-116 175,-24 329,-28 490,-78l806 -353z"/>
   <path class="fil11" d="M3837 15130l-1 27 -275 259c11,-18 23,-34 34,-50 95,-131 188,-195 242,-236zm-1270 146c-7,-33 -17,-68 -31,-106 23,-30 87,-172 169,-363 -13,36 -25,72 -37,109 -38,119 -72,244 -101,360zm532 -1413c71,-171 130,-312 161,-382 152,-345 458,-1638 594,-1764 11,88 -16,256 -54,435 -60,171 -149,445 -256,714 -111,279 -242,552 -359,807 -29,64 -58,128 -86,190z"/>
   <path class="fil19" d="M3020 19479l73 322c-251,-66 -45,-56 -300,-189 45,562 716,647 460,1246 -340,-58 -583,-868 -588,-982 -10,167 97,649 155,801l-116 9c100,476 452,1042 442,1146 143,-309 135,-214 67,-400 142,101 239,255 244,415 -234,-117 82,-66 -192,-123l47 586c-97,-62 -11,12 -106,-149l-53 -83c-92,157 -123,125 -98,334 195,100 1329,66 1500,5l-54 -210 221 41c-1,1 -85,-146 -106,-237 -45,-193 6,-298 -15,-450l126 7 41 29 8 227c119,68 128,63 208,169l-46 456 -181 93 -1758 0c-88,-8 -159,-20 -208,-37 -61,-182 -36,-325 -35,-524 1,-530 -306,-2605 -287,-3414 7,-266 -37,-163 86,-276l-5 367c108,-190 63,-118 257,-81 -136,413 -129,398 34,879l179 23z"/>
   <path class="fil20" d="M7765 6646l32 206c-118,74 -444,543 -1027,963 -192,139 -113,168 -329,309 -345,103 -122,98 -319,264 -47,39 -277,209 -336,250 117,-292 141,-129 283,-404 300,-579 748,-318 783,-1091l90 -6c195,-91 79,73 126,-193 14,-80 -20,-246 -31,-324 -620,8 -743,158 -1103,588 -308,367 -523,467 -592,1038 -213,41 -17,-4 -177,230l-173 -30c256,-801 756,-1799 1613,-2078 497,-161 686,-324 904,-271 254,-38 231,-62 381,8 -217,117 -155,30 -368,113 -4,174 108,339 243,428z"/>
   <path class="fil21" d="M6942 7137l-90 6c-35,773 -483,512 -783,1091 -142,275 -166,112 -283,404l-146 125c-411,36 -50,758 -1050,752 -43,-544 97,-521 409,-802 154,-138 285,8 450,-677l324 -65c-7,-306 -145,-107 237,-578 317,-391 159,-287 710,-313l-245 -116c110,-185 -37,-47 153,-172 216,78 -38,55 285,179l29 166z"/>
   <path class="fil12" d="M10698 6097l113 -181 -105 -222c-36,-275 5,-23 -125,-156 -84,1 -538,-151 -621,-206 -196,-132 -273,-339 -424,-487l-30 -387c854,15 1819,380 2479,-76l-1 -187 -4 378 -1038 820c-24,137 -12,267 -39,405 -45,218 -57,212 -205,299z"/>
   <path class="fil22" d="M4764 10257l-40 153c-271,79 -93,22 -471,318 -619,485 -506,6 -771,627l-299 49c2,201 300,298 -113,457 -2,259 28,526 -18,781 -42,236 -149,349 -202,615 -178,-20 -52,-53 -124,223 166,-864 -81,-553 103,-647 66,-336 89,-744 39,-1088l-670 1354c-61,229 -115,323 -156,560l-110 3c-28,-278 30,-305 114,-556 33,-100 142,-411 149,-480 289,-164 602,-1347 761,-1700 199,-128 403,-95 612,-192 -1,-276 -78,-44 -117,-187 -5,-19 -27,-13 -40,-21 44,-99 144,-287 -41,-287 48,-181 222,-378 391,-450l-130 404 276 399c436,-65 457,-221 857,-335z"/>
   <path class="fil23" d="M9412 20137l200 895c-359,-301 -113,-262 -257,-514 -205,83 -72,-70 -169,202 -102,-110 -86,-158 -265,-76 -10,216 -138,64 155,201l-233 113c83,141 51,70 104,204l249 -62 -3 144 -256 194c151,186 21,90 58,369 259,-74 -80,-92 340,-80l-53 280c-2,24 0,47 -1,71 149,-64 242,-105 401,-142l-47 -457c115,15 100,771 75,908l204 43c62,20 50,-154 56,112l-1305 0 15 -193c232,-39 28,-24 268,30 -71,-223 -117,-178 -267,-272 35,-349 -145,-36 96,-344 -285,-877 258,-228 -182,-887l75 -279c-265,-5 -121,59 -186,39 112,-233 8,128 190,-222 -277,-438 -11,-85 -126,-470l199 -33c-194,-108 -68,-2 -132,-168 109,-175 101,-89 137,-312l160 -47c96,76 -98,58 124,71l-145 239c225,254 57,41 276,192l-279 59c2,113 -10,111 12,252l54 164c68,-13 66,23 159,-64l67 -191c123,3 142,-53 190,100 100,324 -182,30 145,323l-103 -392z"/>
   <path class="fil11" d="M7062 10544c-28,154 3,94 -125,182 -60,42 -83,31 -109,46 -107,65 -23,-4 -98,82 -166,90 -325,349 -396,517 -142,88 -326,424 -375,588l-126 36c-114,-559 37,-1528 -18,-1804 -39,-200 -24,38 -62,-157 177,-154 131,-59 186,-285l336 -352c385,-166 196,-349 451,-533 -42,809 -563,350 -302,1052 94,255 -14,44 142,201 234,235 72,237 219,493l277 -66z"/>
   <path class="fil24" d="M21509 8278c-207,131 -401,123 -665,143 -121,151 -42,-1 -78,190l43 202c292,137 674,-43 1150,11l-107 485 -253 88c-17,-213 -38,-450 -488,-312 -307,94 -110,39 -233,144 69,189 -54,93 158,280 119,105 214,193 340,211 50,-101 -43,-88 114,-273 18,137 -2,319 136,391 203,106 123,21 196,34 215,40 534,339 977,374l92 -178 -46 216c-305,19 -275,-72 -523,-150 -235,-74 -388,-37 -605,-121 -212,0 -409,8 -618,14 -291,8 -261,-76 -506,-61 -24,-131 -91,-107 72,-85 41,-209 26,-362 57,-567 46,-302 21,-288 141,-489l-457 -123c-14,496 48,121 141,289 -196,158 -464,179 -536,704 -222,48 -635,447 -1170,354 207,-177 535,-62 702,-365l296 -44 41 -353c302,-173 284,-73 382,-446l336 -611 249 -41 79 -118 12 23 279 -49 31 -158c77,325 -68,156 -147,447l408 -56z"/>
   <path class="fil25" d="M9299 18735c74,-13 44,-81 56,59 7,319 108,255 0,616l-72 -262c-145,13 -273,110 -371,236l-160 47c-36,223 -28,137 -137,312 64,166 -62,60 132,168l-199 33c115,385 -151,32 126,470 -182,350 -78,-11 -190,222 65,20 -79,-44 186,-39l-75 279c440,659 -103,10 182,887 -241,308 -61,-5 -96,344 150,94 196,49 267,272 -240,-54 -36,-69 -268,-30l-15 193 -83 0c-27,-199 -26,-157 -161,-275 183,-209 -50,-891 -67,-1345 -16,-442 32,-381 -95,-493 15,-351 -104,-213 -39,-586 -191,-123 -125,-8 -181,-154 180,-53 -30,86 224,-57 6,-325 -78,-320 22,-587 95,-253 7,-255 204,-474 39,142 -141,149 369,234l-40 247 192 124c37,-186 113,-66 -38,-216l209 -99 20 -357c4,362 4,110 98,231z"/>
   <path class="fil26" d="M1311 16092l-25 540c3,1 263,252 196,-85 -22,147 -36,357 6,511 79,292 89,109 118,505 42,566 -29,606 233,772 -131,323 -140,400 88,682l-67 164 -33 256c-122,-114 -264,-1112 -413,-1360l-149 134 41 -206c-82,18 -74,-88 -146,83 46,-292 114,-329 87,-696l-259 15c9,-558 357,-458 200,-905l-358 539c-87,128 -54,127 -53,305 -146,68 -146,55 -225,269 -267,226 70,913 -371,968 -101,-202 112,-683 168,-907 -34,-144 -79,-5 32,-244 222,-476 511,-735 527,-1155 13,-322 -16,-362 224,-503l-60 174c192,85 12,28 239,144z"/>
   <path class="fil27" d="M4803 10768c-143,18 -480,189 -617,277 -201,128 -312,192 -426,426 -184,377 -187,943 -504,1204 -55,147 -73,89 -150,294 -122,324 -15,289 -256,288 53,-266 160,-379 202,-615 46,-255 16,-522 18,-781 413,-159 115,-256 113,-457l299 -49c265,-621 152,-142 771,-627 378,-296 200,-239 471,-318l40 -153c276,-33 542,-340 734,-519 515,-481 239,-559 182,-812l154 -86c43,233 116,224 296,381 -133,361 -730,772 -1056,1149 -137,158 -322,191 -271,398z"/>
   <path class="fil28" d="M6942 7137l-29 -166c-323,-124 -69,-101 -285,-179 -190,125 -43,-13 -153,172l245 116c-551,26 -393,-78 -710,313 -382,471 -244,272 -237,578l-324 65c-165,685 -296,539 -450,677 -312,281 -452,258 -409,802 1000,6 639,-716 1050,-752 -78,263 -272,766 -510,876 -173,41 -246,16 -365,142 -159,167 -143,163 -388,204 -141,-211 29,-157 -335,-216l5 -141 -55 -175 1000 -1007 173 30c160,-234 -36,-189 177,-230 69,-571 284,-671 592,-1038 360,-430 483,-580 1103,-588 11,78 45,244 31,324 -47,266 69,102 -126,193z"/>
   <path class="fil29" d="M10144 9735c-281,84 -329,414 -303,689 345,24 383,-85 303,-689zm-518 499c17,-45 143,-419 143,-419 78,-131 263,-155 423,-157l114 566 463 75 136 -108c-139,312 -100,193 -426,221 -27,293 70,574 -191,766 17,-282 70,-178 -94,-317 -65,38 -219,-27 -122,260 55,165 100,122 233,108 -85,166 -65,179 -223,225 -232,-312 -2,-559 -115,-769 -299,329 -334,555 -917,493l-143 -167c-159,-195 -110,-60 -349,-126 -146,-41 -78,-58 -271,-85 -63,-369 -227,-195 -399,-564l68 -783c152,312 92,409 11,724 279,91 307,47 287,304 501,160 754,467 1068,599 227,-1063 135,-381 304,-846z"/>
   <path class="fil30" d="M13103 10124l-1455 -503c-163,118 -51,10 -118,159 -18,40 -23,88 -47,126 -68,111 13,12 -102,107l72 -488 22 -152c283,-118 51,-117 259,-387 127,-165 227,-191 349,-372 148,196 77,205 64,341l341 103c-87,250 116,248 -341,222l5 290 229 -1c34,-147 44,-139 9,-296 24,-3 58,-27 71,-4 11,20 47,-2 62,-3 337,-11 347,-98 602,92l104 91c-4,18 -12,27 -18,54 -44,199 -165,-5 -165,235 7,0 163,-11 170,-10 305,70 82,0 236,117 -111,248 -16,266 -349,279z"/>
   <path class="fil31" d="M8180 21100c-85,117 -86,-122 -93,211 -4,173 49,144 88,208 110,-59 161,53 164,-206 4,-301 -138,-201 -159,-213zm402 1442l-2695 0 -56 -194c159,69 543,211 661,27l122 -144c72,163 -20,91 97,247l378 8 79 -170 286 60 -78 -230c506,51 203,149 357,293l193 -346 -214 -483 -248 0c-24,-133 -100,-177 -114,-312l66 -122 135 175 73 135c143,-191 22,-70 103,-292 156,265 -41,325 69,562l280 -265c-157,-275 -200,-550 -155,-873 204,231 104,9 337,167l1 -356c127,112 79,51 95,493 17,454 250,1136 67,1345 135,118 134,76 161,275z"/>
   <path class="fil32" d="M8180 8312c-109,227 -255,280 -260,523 -5,229 126,413 164,658 -198,-176 -125,-259 -319,-567 -244,-389 -101,-206 -424,-419 59,-303 94,-68 165,-334 -377,44 -271,34 -603,-7 -135,216 -160,73 -328,279 -200,161 -302,187 -464,395 211,119 72,-28 319,108l-155 449 -336 352c-136,76 -753,708 -808,839 -194,48 -73,144 -328,180 -51,-207 134,-240 271,-398 326,-377 923,-788 1056,-1149 -180,-157 -253,-148 -296,-381l292 -261c209,-52 571,-396 746,-563 201,-54 236,-91 358,-239l223 95c193,-233 181,-288 497,-323 -152,302 -103,48 -220,239 -88,143 -52,252 -41,411l269 243 222 -130z"/>
   <path class="fil33" d="M12935 8055l279 250 1137 519c207,150 65,29 94,126 53,221 493,344 690,420 -205,-22 -396,-97 -587,-180 -557,-241 -667,5 -1143,-382 -147,-120 -314,-184 -489,-282 -146,-630 -149,-421 -507,-839 -197,-231 -355,-539 -882,-559l-528 -224c-175,-168 -152,-57 -283,-300l-103 48 4 -206 192 98c308,-32 992,289 1245,546 160,162 314,314 475,475 139,139 403,329 406,490z"/>
   <path class="fil25" d="M6699 18153c99,-34 148,24 179,-108 55,-229 -24,-80 -103,-127l-76 235zm368 -217l-119 60 89 218 30 -278zm-1776 -755l-61 74c202,64 1057,57 1297,27 -241,168 -214,98 -502,91 110,94 219,74 221,71 12,-20 42,-4 63,-4 -43,172 -48,139 35,326l259 -19c144,218 -87,79 277,142 123,22 9,-32 187,47l125 -15 32 147 -127 246c-67,-27 -128,-51 -193,-72 -16,-5 -65,-16 -80,-22 -173,-68 -39,-4 -125,-67 -410,-159 -358,-89 -525,-329 -611,358 -1513,-281 -1859,-33l193 72c-222,-26 -181,-58 -370,44l150 124c-285,-71 -379,-45 -616,94l129 122 -161 -36 -391 -73 -178 152 -4 -183 57 -111 201 25 313 3c-14,-157 48,-54 -75,-136l-51 -166c239,-53 262,-12 514,-31l-20 -109c349,28 696,82 1042,108 337,26 670,110 1013,51 -41,-357 -107,-181 -513,-207 -168,-10 -530,-27 -592,-176l427 94c-115,-135 66,-48 -190,-165 -161,-73 -279,72 -534,-115 192,-150 156,-97 382,-111 124,183 -36,45 110,87 65,19 25,-4 68,-7 205,-16 -39,-53 74,-22l-2 62z"/>
   <path class="fil34" d="M12116 7604c139,21 349,322 533,449l-22 561c-262,-166 -75,-208 -150,-480l-260 -27 -174 292c-441,111 -581,304 -573,766 -307,83 -144,318 -289,516 -17,-155 -12,-221 -69,-362 -9,-25 -57,-130 -64,-143 -99,-169 -12,-47 -131,-170l27 18c67,-231 176,-87 201,-469 11,-172 -23,-370 -27,-544l27 113c224,390 537,336 551,-220l-225 -70c-129,-175 -97,-204 -83,-433 187,-19 196,32 323,99 134,69 253,93 405,104z"/>
   <path class="fil35" d="M7983 18097c145,274 114,1435 280,1535 -254,143 -44,4 -224,57 56,146 -10,31 181,154 -65,373 54,235 39,586l-1 356c-233,-158 -133,64 -337,-167l90 -307c2,-18 1,-36 3,-52 20,-161 -32,-9 36,-149 -320,-202 -23,-169 -205,-943l199 -75c-6,-132 -105,-253 -257,-291 -155,62 -59,-27 -112,142l-130 140 349 260c-31,45 -72,88 -84,101 -143,153 57,-94 -38,28 64,292 46,588 23,892 -251,-107 -22,132 -235,-560 -72,-231 116,-338 -26,-530l38 -158 -29 -190c148,-175 195,-309 154,-515l-197 248c-118,-213 -84,-341 -98,-606l-7 -219 68 -47 194 -3c6,18 9,40 12,56l63 313c164,-90 27,101 158,-203l93 147z"/>
   <path class="fil36" d="M11984 4195l1 187c-660,456 -1625,91 -2479,76l30 387c-173,-69 -389,-213 -356,-384 -32,308 -38,135 -115,222l-23 -521 -702 -72c162,30 345,35 515,23 212,-14 240,-88 388,-145 307,115 352,292 804,380 262,100 491,66 763,88 247,21 602,192 755,-28 134,1 229,-70 345,-143l-30 -192c-155,-59 -131,-8 -336,-136l66 -234 198 -14c-146,-301 -465,25 -712,33l2 -173 159 -107c286,-143 252,-47 489,-134 -177,-228 -428,-203 -713,-197l104 -234 44 -30c258,-16 188,-31 433,91l58 -141c44,120 25,159 65,301 29,103 94,214 123,326 70,269 36,545 124,771z"/>
   <path class="fil37" d="M6788 13473c222,420 220,141 323,748 -199,101 -35,51 -306,65l39 292c-141,2 -539,-110 -956,-127 -154,-5 -114,-10 -275,-130l9 -435c206,0 42,8 250,99l131 -179c-113,-319 -231,-296 -284,-605l-4 -280c242,82 469,835 970,1041l-29 -590 132 101z"/>
   <path class="fil38" d="M8149 6998l93 326 -7 1046c-104,219 -223,428 -165,687 26,117 109,220 181,279 152,126 27,-28 197,192 151,3 361,29 505,-31 175,-75 28,-390 380,-248 221,90 -50,113 137,97 130,-262 -271,-828 -225,-1356l736 74c-102,138 105,93 -231,111 -44,3 -164,-24 -210,-30l-165 44c0,472 126,271 199,595 60,265 86,312 186,557 -145,93 -335,210 -553,262 -266,64 -285,150 -643,192 -139,-103 -348,-277 -492,-342l12 40c-38,-245 -169,-429 -164,-658 5,-243 151,-296 260,-523 -22,-335 82,-807 -71,-1090l-159 327c-316,35 -304,90 -497,323l-223 -95c-122,148 -157,185 -358,239 104,-249 237,-294 439,-441 343,-250 236,-145 605,-222l156 -401 77 46z"/>
   <path class="fil39" d="M19543 9684c-167,303 -495,188 -702,365 -156,-12 -1308,244 -1540,294 -586,126 -1074,78 -1677,87 -186,-200 -408,-374 -630,-524 -272,-184 -721,-233 -756,-327 -10,-26 -31,-26 -46,-40 188,-5 596,60 809,90 310,42 306,148 399,378 194,20 414,-13 608,21 323,56 113,362 1522,98 607,-113 1659,-412 2013,-442z"/>
   <path class="fil8" d="M8084 9493l-12 -40 114 290 -25 327c14,10 31,23 43,28l142 58c414,133 231,177 345,241 549,83 301,-38 556,-158 149,-9 54,135 379,-5 -169,465 -77,-217 -304,846 -314,-132 -567,-439 -1068,-599 20,-257 -8,-213 -287,-304 81,-315 141,-412 -11,-724 -169,-21 46,-294 -326,-447l-146 -139c-60,-177 86,-187 -477,-219 -79,-210 70,32 -46,-250l-386 47c168,-206 193,-63 328,-279 332,41 226,51 603,7 -71,266 -106,31 -165,334 323,213 180,30 424,419 194,308 121,391 319,567z"/>
   <path class="fil0" d="M6699 18153c86,63 -48,-1 125,67 15,6 64,17 80,22 65,21 126,45 193,72l206 65 40 311 32 507 -620 -47 -63 -162c172,-27 173,0 278,-67 53,-34 0,-16 73,-66 11,-8 25,-16 37,-24l95 -55c15,-9 37,-20 54,-30 186,-116 88,-37 87,-267 -306,24 -329,-48 -481,148 -219,-230 -522,-244 -860,-248 -223,-202 -1276,-390 -1467,-516l-193 -72c346,-248 1248,391 1859,33 167,240 115,170 525,329z"/>
   <path class="fil40" d="M4018 11467l-75 2c-104,208 -63,51 -89,248 -136,126 -442,1419 -594,1764 -31,70 -90,211 -161,382 -81,182 -154,352 -218,503 -68,161 -126,300 -176,441 -82,191 -146,333 -169,363 -111,-509 239,-896 304,-1307 83,-527 203,-734 416,-1188 317,-261 320,-827 504,-1204 114,-234 225,-298 426,-426 137,-88 474,-259 617,-277 -24,226 68,28 -130,216 -77,74 -73,78 -148,125 -109,68 -300,147 -448,169l-59 189z"/>
   <path class="fil41" d="M9900 7874c92,78 66,11 81,190l-736 -74c-46,528 355,1094 225,1356 -187,16 84,-7 -137,-97 -352,-142 -205,173 -380,248 -144,60 -354,34 -505,31 -170,-220 -45,-66 -197,-192 -72,-59 -155,-162 -181,-279 -58,-259 61,-468 165,-687 18,120 -275,1028 583,945 64,-859 -33,-543 323,-1374l285 -42 110 -60 -10 -176c193,129 98,166 374,211z"/>
   <path class="fil42" d="M2587 17841c-913,633 30,1697 -732,1909 -183,-137 -207,-313 -253,-530 -44,-207 -107,-436 -144,-640 -390,447 -182,973 -153,1506l-114 107c57,-193 26,-1307 33,-1610l41 -372 149 -134c149,248 291,1246 413,1360 63,113 -161,102 147,100 229,-198 60,-834 42,-1133 -44,-714 -37,-468 244,-1001l295 -32 171 19c-12,179 -48,291 -139,451z"/>
   <path class="fil43" d="M11475 9373l-22 152c-146,137 -173,382 -266,595 -39,87 -80,168 -132,256 -127,218 -85,72 -212,226 -137,166 -27,319 -244,596 -133,170 -273,278 -405,415l-193 16 -118 -395 -186 190c-846,-47 -224,-61 -607,42l-40 -288c583,62 618,-164 917,-493 113,210 -117,457 115,769 158,-46 138,-59 223,-225l-17 -51c261,-192 164,-473 191,-766 326,-28 287,91 426,-221 118,-117 265,-312 276,-510 145,-198 -18,-433 289,-516l5 208z"/>
   <path class="fil44" d="M3546 15438c-72,142 -131,251 -181,349 57,-126 119,-249 181,-349zm-402 898c-18,60 -36,126 -55,201l-92 198 -41 -15c19,5 32,2 44,-8 21,-20 36,-68 78,-190 17,-50 39,-114 66,-186zm-219 373l-221 -80 -199 -123c-126,-459 -123,-464 -97,-956l128 -380c14,38 24,73 31,106 -15,60 -28,117 -41,170 -36,157 -62,277 -74,404 -13,128 -13,263 10,372 24,109 71,193 152,271 80,78 193,151 264,191 18,11 34,19 47,25z"/>
   <path class="fil45" d="M9534 7706c-421,-209 -445,-362 -588,-416 -149,-57 -257,38 -287,-127 -15,-88 86,-161 0,-429 -124,-31 -351,24 -533,43l23 221 -77 -46c-71,-181 -24,-97 -173,-232l4 -377 -301 -113c26,375 71,79 163,416 -135,-89 -247,-254 -243,-428 213,-83 151,4 368,-113 -150,-70 -127,-46 -381,-8 44,-145 -37,-148 112,-56 401,-11 382,-144 793,53l-133 429c208,-48 180,-75 290,-202 621,612 186,149 496,621 86,130 113,261 202,361 190,213 171,74 265,403z"/>
   <path class="fil46" d="M6126 8579l-292 261 -154 86c57,253 333,331 -182,812 -192,179 -458,486 -734,519 -400,114 -421,270 -857,335l-276 -399 130 -404c-15,-185 68,-236 231,-336l55 175c-278,249 -242,344 -170,605 39,142 -71,-54 47,172 348,18 740,-257 988,-473l218 -293c238,-110 432,-613 510,-876l146 -125c59,-41 289,-211 336,-250 197,-166 -26,-161 319,-264 -77,232 -181,237 -315,455z"/>
   <path class="fil47" d="M9536 4845c151,148 228,355 424,487 83,55 537,207 621,206l64 284c-334,225 -484,599 -653,1266 -123,172 -99,234 -85,478l-157 -51c-23,-457 226,-599 -107,-913l-1 -538c469,-41 386,99 557,-114 144,-24 265,-102 329,-245 -106,-137 -73,-104 -247,-146 -123,-41 -317,-34 -454,-97 -333,-150 47,-188 -360,-336 -104,-233 -80,-119 -274,-298l-214 33 86 -178c77,-87 83,86 115,-222 -33,171 183,315 356,384z"/>
   <path class="fil48" d="M7594 13201l165 33c127,360 328,343 337,652 -253,97 -220,64 -485,6 -124,-80 -128,-25 -184,-183l-3 -282c-315,-175 -249,45 -405,-259 -60,-118 -157,-265 -197,-419l203 23c-10,-264 -139,-335 -371,-460 -123,134 -66,11 -52,217 -91,-210 -272,-416 -452,-593l-191 23c49,-164 233,-500 375,-588 -15,279 -92,330 125,528 124,113 237,249 336,387 175,245 274,239 371,369 95,127 58,294 211,526l217 20z"/>
   <path class="fil48" d="M6788 13473c620,294 240,889 386,1294 427,0 476,21 805,-202 -321,243 -387,354 -864,275 -556,-93 -365,196 -834,228 9,-14 26,-50 32,-39 5,10 24,-28 31,-36 156,-163 126,-94 154,-324 -348,-86 -267,-75 -556,45l-237 -129 -51 161 -115 21c-34,-478 -63,-834 83,-1287 155,-113 97,-16 97,-279 53,309 171,286 284,605l-131 179c-208,-91 -44,-99 -250,-99l-9 435c161,120 121,125 275,130 417,17 815,129 956,127l-39 -292c271,-14 107,36 306,-65 -103,-607 -101,-328 -323,-748z"/>
   <path class="fil49" d="M7292 12073c-176,-226 -119,-254 -428,-295 13,241 268,579 524,551l49 -172 51 -37c77,101 103,111 131,242l-260 117c-55,223 -76,221 6,427l35 180c231,76 102,18 194,115l-217 -20c-153,-232 -116,-399 -211,-526 -97,-130 -196,-124 -371,-369 -99,-138 -212,-274 -336,-387 -217,-198 -140,-249 -125,-528 71,-168 230,-427 396,-517 -75,329 -287,322 96,621 208,162 218,223 462,393l4 205z"/>
   <path class="fil50" d="M8498 7842c230,19 193,48 378,-57 -127,-340 32,-9 -262,-204l155 -56 -354 -314c-56,92 -103,-9 -27,351 38,180 4,106 110,280zm1036 -136l-8 -43 10 176 -110 60c-91,-119 -230,-67 -406,-57 -125,160 1,74 -155,152l-573 45 -50 -715 -93 -326 -23 -221c182,-19 409,-74 533,-43 86,268 -15,341 0,429 30,165 138,70 287,127 143,54 167,207 588,416z"/>
   <path class="fil51" d="M7217 20276c-18,7 -150,63 -166,70 -49,19 -71,30 -125,47l1 292c-97,39 -115,20 -171,98 -113,159 14,-35 -47,124l-45 118 66 -114c-347,-185 -79,-45 -308,-293 -108,152 -29,128 -122,135l0 -30 51 -166 -261 -82 172 -104c-187,-154 -89,-103 -287,22 -70,-179 107,-71 -131,-194 341,-474 110,5 163,-523l0 -70c-201,8 -315,20 -467,4 122,-40 174,-18 320,-7l67 -82c181,32 280,157 407,287 159,163 236,157 394,321 278,17 336,-85 489,147z"/>
   <path class="fil52" d="M684 19654c-160,190 -114,186 0,336 97,-151 133,-139 0,-336zm-206 -933c-32,225 -68,298 92,470 117,-217 -15,-143 112,-362 110,104 199,629 330,862l-52 196 -7 -29c-81,196 -109,273 123,376l-108 90c-331,-274 68,-98 -386,-253 -338,-932 -199,-182 -381,-737 -120,-364 -323,-738 -104,-931l17 213c353,262 -18,-68 364,105z"/>
   <path class="fil53" d="M21953 8749c96,156 389,69 549,84 235,22 224,157 440,173l40 241c135,66 317,146 402,-18l67 80 0 12 -257 265c-261,-173 -170,-2 -384,-273 -174,-220 -366,-162 -642,-176l-38 154c-222,6 -257,73 -404,193l-236 -37 109 -50 253 -88 107 -485c-476,-54 -858,126 -1150,-11l-43 -202 248 30c150,154 6,113 309,103 109,-4 213,-22 342,-20l124 -110c508,-6 277,-208 893,25 -137,9 -273,26 -409,36 -208,15 -266,-47 -320,74z"/>
   <path class="fil54" d="M9467 5126l21 207c163,91 124,59 142,261l-315 0 -65 231 286 -72c-4,48 -169,745 -116,962 135,255 242,599 270,897 -136,-131 -234,-309 -260,-503 -40,-291 -141,-215 -117,-503 29,-340 54,-133 -19,-500l-305 116c16,-180 447,-945 401,-1060 -168,-183 -203,-229 -427,-163 -161,119 50,537 -15,701l-208 214 -556 -35 -132 10 73 -144 89 -4c220,-79 214,-31 407,-12 269,-341 114,-379 262,-761l96 -107 214 -33c194,179 170,65 274,298z"/>
   <path class="fil55" d="M2195 12626c-7,69 -116,380 -149,480 -84,251 -142,278 -114,556 -230,50 -123,261 -206,471 -102,261 -123,192 -144,531 -121,-56 39,-30 -126,-52l-100 137c38,-555 440,-1644 574,-2317l101 -622c97,-236 41,-104 164,-175l-101 399c126,65 4,-15 220,35l-119 557z"/>
   <path class="fil56" d="M9737 8899c11,213 563,794 -193,642l-49 450c-222,157 -449,118 -702,85 -725,-95 -252,-79 -607,-333l-114 -290c144,65 353,239 492,342 358,-42 377,-128 643,-192 218,-52 408,-169 553,-262 -100,-245 -126,-292 -186,-557 -73,-324 -199,-123 -199,-595l165 -44 -63 189c66,195 90,60 171,288 65,187 -21,150 89,277z"/>
   <path class="fil8" d="M9914 22430l-204 -43c25,-137 40,-893 -75,-908l-51 -284c-151,83 -120,19 -186,204l3 -101c-138,-117 -12,-63 -208,-54l3 -144 -249 62c-53,-134 -21,-63 -104,-204l233 -113c-293,-137 -165,15 -155,-201 179,-82 163,-34 265,76 97,-272 -36,-119 169,-202 144,252 -102,213 257,514l-200 -895 -57 -727 119 -24c-20,376 265,1642 330,2204 38,325 110,473 110,840z"/>
   <path class="fil57" d="M8292 8039c53,256 105,284 278,436 224,-114 262,-192 295,-481 156,-78 30,8 155,-152 176,-10 315,-62 406,57l-285 42c-356,831 -259,515 -323,1374 -858,83 -565,-825 -583,-945l7 -1046 50 715z"/>
   <path class="fil41" d="M11610 3703c-228,93 -155,27 -201,213 109,181 254,178 471,157l30 192c-116,73 -211,144 -345,143l-323 33 -343 -181 230 -156 -320 -74c-346,304 -557,133 -953,54l-1 55 24 -202 -50 -206 343 -133c-113,210 -67,14 -254,267 247,175 294,252 635,238l91 -223c278,39 237,1 318,-53 -13,-222 -54,-244 136,-278l-2 173c247,-8 566,-334 712,-33l-198 14z"/>
   <path class="fil1" d="M11201 1827l-187 -97c-189,-88 -139,-187 -350,-198 -154,-248 -90,-90 -303,-227 -20,-192 -90,-130 -298,-298 345,-271 262,-114 768,-36 69,-2 18,-25 137,32l192 54 -83 -183c-194,-115 -450,-227 -596,-427 268,70 554,235 736,432 265,288 98,558 -82,855l66 93z"/>
   <path class="fil44" d="M6154 19224c57,90 -86,34 117,87l245 43c94,332 128,195 384,449l234 -169c138,-41 28,16 62,-71 92,-33 48,75 92,-134l89 -127 44 252 -98 161 -106 561c-153,-232 -211,-130 -489,-147 -158,-164 -235,-158 -394,-321 -127,-130 -226,-255 -407,-287l-223 -186c-196,-152 -109,39 -156,-210l606 99z"/>
   <path class="fil23" d="M10281 5559l-395 78 54 312 259 1c-171,213 -88,73 -557,114l1 538c333,314 84,456 107,913l157 51 9 208 -221 -55 -5 -107c-28,-298 -135,-642 -270,-897 -53,-217 112,-914 116,-962l-286 72 65 -231 315 0c-18,-202 21,-170 -142,-261l-21 -207c407,148 27,186 360,336 137,63 331,56 454,97z"/>
   <path class="fil58" d="M3022 17700l30 115 -28 146 -337 -22c40,172 30,182 173,302 189,-52 69,34 207,-134l4 183 178 -152 391 73c-167,7 -376,-16 -432,97 -105,-4 -206,-44 -186,98 11,72 28,3 180,106 -166,180 -68,49 -58,148l-273 0c21,240 -73,133 155,186 157,37 293,33 455,10 -127,113 56,115 -276,95 -11,0 -177,-49 -239,-69l-103 125 -75 52c290,104 313,32 409,290l-183 -91 6 221 -179 -23c-163,-481 -170,-466 -34,-879 -194,-37 -149,-109 -257,81l5 -367c-41,-244 13,-233 32,-450 91,-160 127,-272 139,-451l-171 -19 76 -121 184 59 207 391z"/>
   <path class="fil59" d="M9430 7109c-365,-210 -231,-444 -205,-772l-391 19 -650 -477 556 35 208 -214c65,-164 -146,-582 15,-701 224,-66 259,-20 427,163 46,115 -385,880 -401,1060l305 -116c73,367 48,160 19,500 -24,288 77,212 117,503z"/>
   <path class="fil60" d="M4894 14457c285,108 63,-29 342,56l60 203 -226 176c-16,298 -95,286 -82,599l-208 -76 117 -40 -143 -81c63,-296 78,-116 7,-357l-235 -86 -139 264 -160 -127 -20 -172c-135,76 -231,88 -15,155l72 145 -393 -169c0,-20 1,-41 3,-62 3,-47 11,-91 34,-147l8 -19 102 -151 -28 32c233,-27 179,50 277,-178 655,58 -18,-64 344,-61 9,264 -108,-26 8,258 98,-24 22,6 120,-50 14,-8 65,-42 76,-49l79 -63z"/>
   <path class="fil61" d="M4811 15634l45 168c-229,257 -267,166 -259,529l-242 0c-130,-62 -81,27 -102,-124l-116 -46c-89,-237 -39,-139 -160,-174 -135,228 -26,131 -112,348l-147 13 -9 -181c187,-122 117,-30 184,-270 258,20 189,55 318,-88l-14 -130c-342,27 6,126 -447,203l-9 -181c137,-128 161,-62 249,-289l170 -44 238 9 413 257z"/>
   <path class="fil11" d="M10698 6097c57,243 -72,88 55,320l-190 59 -69 569c-201,197 -212,339 -516,564l14 -521c169,-667 319,-1041 653,-1266l-64 -284c130,133 89,-119 125,156l105 222 -113 181z"/>
   <path class="fil62" d="M7229 18746c-654,61 -916,-264 -1319,-216 22,188 164,155 377,319 124,96 230,158 351,278l174 127c260,-51 179,-69 463,12l13 163c-44,209 0,101 -92,134 124,-242 74,-47 49,-289 -315,9 -348,10 -345,293 -191,-166 -205,-115 -391,-268l-238 12c-203,-53 -60,3 -117,-87 274,90 161,76 454,18 -80,-193 69,-232 -302,-180 -108,15 -128,36 -248,34 222,-7 78,47 250,-89 -135,-110 8,-27 -139,-87l-369 -152c-140,-58 -426,-61 -610,-85 239,-239 181,-63 413,-166 294,-132 -67,-117 372,-138 338,4 641,18 860,248 152,-196 175,-124 481,-148 1,230 99,151 -87,267z"/>
   <path class="fil63" d="M23194 9586c100,75 90,-96 89,259 -469,0 -506,-129 -778,-154l51 110c-153,-99 -314,-127 -496,-124 16,272 18,179 283,276 295,109 68,126 395,205l29 -125 124 35 -92 178c-443,-35 -762,-334 -977,-374 -73,-13 7,72 -196,-34 -138,-72 -118,-254 -136,-391l236 37c147,-120 182,-187 404,-193l38 -154c158,190 201,139 490,210 -254,-25 -262,-82 -463,45l141 57c561,142 766,433 858,137z"/>
   <path class="fil64" d="M4040 18704c-143,23 -313,82 -406,202 343,186 850,0 1235,100l-935 76c146,256 87,280 386,139 -142,179 17,114 -249,128 -71,228 35,64 -88,225 -118,-172 -213,-300 -102,-467l-343 102 27 -27c-172,-130 -158,-71 -337,-127 -260,-82 -129,-110 -365,-48l103 -125c62,20 228,69 239,69 332,20 149,18 276,-95l10 -155 -347 -41c-10,-99 -108,32 58,-148 -152,-103 -169,-34 -180,-106 -20,-142 81,-102 186,-98l272 165 316 -94 5 -132 719 -3 -548 92 -92 239 160 129z"/>
   <path class="fil65" d="M8348 18027c43,107 124,282 184,367 125,174 168,64 175,295l-218 -118c-197,219 -109,221 -204,474 -100,267 -16,262 -22,587 -166,-100 -135,-1261 -280,-1535 -12,-563 143,-239 -225,-723l-81 126 -197 -53c142,-113 113,-65 254,-209 255,164 170,78 391,322 184,204 159,206 223,467z"/>
   <path class="fil66" d="M8536 11677l203 4c91,-212 -79,33 68,-189 134,-202 94,-48 142,-272l-479 105 66 352zm929 13c-214,239 -190,38 -412,290 -190,-84 -373,-95 -605,-74 9,332 227,457 515,429 438,-43 14,-324 571,-332l-23 79c-388,150 -169,179 -383,314 -180,113 -328,56 -546,44 -117,-230 -64,-110 -218,-261 -202,-199 -124,-224 -53,-401 59,-147 61,-652 316,-742 483,8 367,291 344,658l494 -4z"/>
   <path class="fil9" d="M10513 3295c-10,333 -53,152 207,309 215,-55 170,-51 322,-250l-203 -101c-238,-72 -222,-25 -326,42zm422 -1078l141 168 -169 -56c-98,282 -246,216 -142,522 115,-5 190,-37 287,-65l85 91 -104 234c4,2 116,43 116,43 96,48 57,27 127,86l-19 202 -159 107c-190,34 -149,56 -136,278l-235 28c-226,-324 -15,-73 -324,-267 -102,-564 155,-461 205,-968l49 -411 98 -84 180 92z"/>
   <path class="fil41" d="M8072 6952l-156 401c-369,77 -262,-28 -605,222 -202,147 -335,192 -439,441 -175,167 -537,511 -746,563 134,-218 238,-223 315,-455 216,-141 137,-170 329,-309 583,-420 909,-889 1027,-963l-32 -206c-92,-337 -137,-41 -163,-416l301 113 -4 377c149,135 102,51 173,232z"/>
   <path class="fil66" d="M5276 10684c-8,202 -47,361 -46,557 0,225 48,386 -53,538 8,-122 15,-237 22,-341 22,-322 40,-526 49,-651 9,-126 9,-173 -5,-188 -15,-15 -44,4 -104,69 -60,66 -151,179 -240,273 -90,95 -177,171 -277,261l-79 70c-180,77 -309,155 -525,195l59 -189c148,-22 339,-101 448,-169 75,-47 71,-51 148,-125 198,-188 106,10 130,-216 255,-36 134,-132 328,-180l161 -42 -16 138z"/>
   <path class="fil67" d="M5599 21878l-151 -25 -101 264c-87,-121 -48,23 -51,-115 0,-21 24,-120 28,-139 -194,-15 -306,-68 -356,-258 157,230 -13,61 247,154 -95,-353 -57,-136 -221,-394 66,-45 71,-46 130,-84l-12 -210 76 -48 -91 -121 120 -1c-36,-364 -53,-91 55,-194 90,231 69,104 265,229 -83,199 -90,76 -103,350l179 -108c100,270 -39,127 27,447 167,-59 86,-50 139,-77l219 -63c349,-48 187,-117 500,-175 -97,260 -195,229 -418,306 -484,165 -10,141 -493,125l12 137z"/>
   <path class="fil68" d="M7091 22061l-88 73c-226,-213 -185,-1 -333,-151 181,111 155,116 398,198l-48 291c-286,-135 -76,-3 -219,-224l-90 230c-117,-156 -25,-84 -97,-247l-122 144 -260 -105 29 -135 115 -69c12,-414 -168,-219 69,-505l89 54c10,8 24,23 34,33 9,8 19,26 26,33 252,269 -187,-44 57,69 107,-341 -87,-75 14,-411 170,-71 89,-174 336,39l62 63c55,76 32,34 45,149 -186,210 -10,6 -218,124l-77 61c-8,-12 -22,26 -31,40 126,98 24,44 168,94 24,8 153,11 169,11l-28 141z"/>
   <path class="fil69" d="M7845 19167c182,774 -115,741 205,943 -68,140 -16,-12 -36,149 -2,16 -1,34 -3,52l-90 307c-84,96 -59,-41 -113,205 -23,105 -1,112 -31,254l-158 9 0 -466 -201 126c17,-147 63,-402 63,-544 0,-64 -17,-176 -29,-240 -57,-302 34,-150 -129,-247l98 -161c76,-133 22,21 42,-146 3,-18 -3,-34 -1,-53 15,-154 -64,-126 110,-239l-38 158c142,192 -46,299 26,530 213,692 -16,453 235,560 23,-304 41,-600 -23,-892 95,-122 -105,125 38,-28 12,-13 53,-56 84,-101l-349 -260 130 -140 159 -31 11 255z"/>
   <path class="fil68" d="M7418 20746l-130 230c-122,-174 -48,-61 -183,-93 -6,188 64,237 25,465l-162 -107c-150,-98 118,-5 -88,-48 -213,-45 -137,70 -397,-106 123,-124 1,-105 181,-62l45 -118c61,-159 -66,35 47,-124 56,-78 74,-59 171,-98l-1 -292c54,-17 76,-28 125,-47 16,-7 148,-63 166,-70l106 -561c163,97 72,-55 129,247 12,64 29,176 29,240 0,142 -46,397 -63,544z"/>
   <path class="fil57" d="M10279 2327c23,195 22,205 150,367l179 -74c-50,507 -307,404 -205,968 309,194 98,-57 324,267l235 -28c-81,54 -40,92 -318,53l-91 223c-341,14 -388,-63 -635,-238 187,-253 141,-57 254,-267l110 -47 -31 -296 -225 -231 290 27c96,-170 -231,-238 -227,-651l-66 -21 0 -75c208,-133 -77,-96 227,-140l29 163z"/>
   <path class="fil27" d="M2956 10926c-159,353 -472,1536 -761,1700l119 -557c-216,-50 -94,30 -220,-35l101 -399c-14,-175 567,-799 750,-895l11 186z"/>
   <path class="fil40" d="M7971 16066c-165,-103 -224,-94 -427,-32 58,75 52,145 247,142 251,-3 119,-6 180,-110zm166 -168c175,87 405,124 522,255l-136 22c0,20 -11,150 -12,156 -40,131 9,23 -61,121 -117,-210 -4,-271 -280,-175 93,108 100,120 116,312l154 -24c-216,253 -55,133 -293,145 -96,-277 65,-328 -259,-457l24 308c-228,-149 -735,-532 -880,-719 254,109 101,108 411,133l-146 -313c286,123 506,196 840,236z"/>
   <path class="fil70" d="M7736 10867l-24 162 -49 158c-98,222 -53,144 -39,401 -207,-14 -345,-177 -522,-326 -386,-328 -83,-297 -372,-408 75,-86 -9,-17 98,-82 26,-15 49,-4 109,-46 128,-88 97,-28 125,-182l306 -44 252 444 116 -77z"/>
   <path class="fil27" d="M9767 2992l259 32 225 231 31 296 -110 47 -343 133 50 206c-234,-66 -318,-236 -370,-481l228 -156c-224,-671 -745,243 -792,-1042 440,212 -235,589 822,734z"/>
   <path class="fil71" d="M4956 17358c62,149 424,166 592,176 406,26 472,-150 513,207 -343,59 -676,-25 -1013,-51 -346,-26 -693,-80 -1042,-108l-467 -60 578 -168c204,-143 22,48 104,-125 11,-22 6,-122 12,-153 282,176 0,439 723,282z"/>
   <path class="fil72" d="M9855 4139l1 -55c11,14 28,15 35,41 59,241 -12,-26 67,84 53,74 27,18 89,139 -452,-88 -497,-265 -804,-380 -148,57 -176,131 -388,145 -170,12 -353,7 -515,-23 -170,-50 -56,8 -103,-112 295,117 378,63 684,85l77 -158c19,-332 43,78 78,-213 11,-95 -31,-156 -103,-229 -71,-72 -261,-229 -355,-269l-13 -50 360 51 -7 -219c261,84 369,352 388,651 279,207 156,393 509,512z"/>
   <path class="fil73" d="M9430 7109c26,194 124,372 260,503l5 107 221 55 -11 -43 -5 143c-276,-45 -181,-82 -374,-211l8 43c-94,-329 -75,-190 -265,-403 -89,-100 -116,-231 -202,-361 -310,-472 125,-9 -496,-621 -110,127 -82,154 -290,202l133 -429c-411,-197 -392,-64 -793,-53 42,-139 -68,-131 112,-93l319 -59 132 -10 650 477 391 -19c-26,328 -160,562 205,772z"/>
   <path class="fil74" d="M11181 9681c-11,198 -158,393 -276,510l-136 108 -463 -75 -114 -566 99 109c164,-149 137,-62 295,95l370 -272 -4 -250 -35 -334c119,123 32,1 131,170 7,13 55,118 64,143 57,141 52,207 69,362z"/>
   <path class="fil75" d="M9187 18055c101,182 112,441 112,680 -94,-121 -94,131 -98,-231l-20 357 -209 99c151,150 75,30 38,216l-192 -124 40 -247c-510,-85 -330,-92 -369,-234l218 118c-7,-231 -50,-121 -175,-295 -60,-85 -141,-260 -184,-367 140,83 124,109 177,146 156,109 305,50 405,256 154,-288 0,11 54,-352l203 -22z"/>
   <path class="fil10" d="M4692 21138l3 85 -221 48 -189 -128 -268 -422c-149,-194 -244,106 -261,-584l261 228c190,-290 -75,-99 209,-269 86,195 -38,207 -74,238 429,77 78,20 249,127 231,145 7,6 269,25 -78,312 -199,123 -158,632l180 20z"/>
   <path class="fil76" d="M22780 8334c116,182 4,59 168,177 -187,71 -537,-171 -815,-135 -224,30 -753,202 -908,312l-211 -47 -248 -30c36,-191 -43,-39 78,-190 264,-20 458,-12 665,-143 140,-77 485,-60 714,-114 177,-41 430,17 557,170z"/>
   <path class="fil77" d="M9579 16530c114,39 101,118 113,251l10 279 -179 56c-241,-184 -659,-66 -1000,-121l264 -114c-158,-99 -111,-10 -247,-156l502 26 92 189c5,0 151,-10 155,-10l-144 -71c7,-18 251,-504 77,-358 -36,-330 79,-45 -164,-331l129 -111c368,209 141,210 392,471z"/>
   <path class="fil78" d="M12627 8614l15 18c106,499 382,233 589,571 -335,-23 -426,-206 -768,-234 -68,-173 -10,-80 -128,-188 118,-155 115,-106 50,-289 -156,-61 -416,85 -552,196 -139,113 -186,361 -363,477 -8,-462 132,-655 573,-766l174 -292 260 27c75,272 -112,314 150,480z"/>
   <path class="fil79" d="M9928 2037l-59 81c-154,89 -102,-12 -155,242l178 52c-187,242 -135,-82 -480,-64 -19,256 -70,221 130,343l25 161 -238 -78c-127,-263 -45,-275 -108,-463 -90,-264 -20,180 -132,-385l173 -123c25,5 50,15 71,20l114 32c96,15 45,22 178,-86 219,33 10,71 247,-35 21,175 10,133 56,303z"/>
   <path class="fil11" d="M9743 11947l-209 56c-557,8 -133,289 -571,332 -288,28 -506,-97 -515,-429 232,-21 415,-10 605,74 222,-252 198,-51 412,-290 134,-29 295,-117 366,-216l56 332 -144 141z"/>
   <path class="fil72" d="M5599 21878c-66,255 19,11 -82,122 -1,2 -178,68 -135,318l186 110 180 -164 83 84 56 194 -1130 0 181 -93 46 -456c-80,-106 -89,-101 -208,-169l-8 -227 200 8c50,190 162,243 356,258 -4,19 -28,118 -28,139 3,138 -36,-6 51,115l101 -264 151 25z"/>
   <path class="fil80" d="M4047 9628l-5 141c364,59 194,5 335,216 245,-41 229,-37 388,-204 119,-126 192,-101 365,-142l-218 293c-248,216 -640,491 -988,473 -118,-226 -8,-30 -47,-172 -72,-261 -108,-356 170,-605z"/>
   <path class="fil26" d="M927 17968c-74,271 -102,644 239,682 -56,290 13,561 -146,761 -237,-364 112,-790 -542,-690 -38,-401 32,-508 102,-903 157,80 49,-32 147,138 9,14 39,150 56,171l144 -159z"/>
   <path class="fil25" d="M10395 8429l-94 133 -384 -170c-96,308 -25,508 179,761 622,-48 629,-820 606,-932 -136,141 -111,156 -307,208zm-658 470c31,-223 -22,-364 -78,-540 306,-157 272,-79 577,-28l30 98 129 0c43,-164 84,-248 236,-290l132 37c233,869 -412,1156 -681,1094 -257,-174 -184,-271 -345,-371z"/>
   <path class="fil81" d="M10395 8429c196,-52 171,-67 307,-208 23,112 16,884 -606,932 -204,-253 -275,-453 -179,-761l384 170 94 -133z"/>
   <path class="fil82" d="M9355 19410l57 727 103 392c-327,-293 -45,1 -145,-323 -48,-153 -67,-97 -190,-100l-67 191c-93,87 -91,51 -159,64l-54 -164c-22,-141 -10,-139 -12,-252l279 -59c-219,-151 -51,62 -276,-192l145 -239c-222,-13 -28,5 -124,-71 98,-126 226,-223 371,-236l72 262z"/>
   <path class="fil8" d="M7365 12906c-82,-206 -61,-204 -6,-427l260 -117c-28,-131 -54,-141 -131,-242l297 15c-4,-218 -50,-224 -135,-407 261,153 328,384 347,702 -127,87 -89,113 -225,67 65,188 16,133 44,302 35,203 23,1 77,231 -274,26 -309,-34 -528,-124z"/>
   <path class="fil73" d="M10664 1532c211,11 161,110 350,198 0,185 6,154 -102,279l23 208 -180 -92 0 -226c-227,-193 -207,-156 -517,-188l-154 31c-18,200 10,192 -156,295 -46,-170 -35,-128 -56,-303 81,7 31,38 61,-60l-114 -62 -141 -328c281,43 202,71 405,151 11,4 515,86 581,97z"/>
   <path class="fil75" d="M7484 8867c-264,-61 -525,-184 -758,-3 -255,184 -66,367 -451,533l155 -449c-247,-136 -108,11 -319,-108 162,-208 264,-234 464,-395l386 -47c116,282 -33,40 46,250 563,32 417,42 477,219z"/>
   <path class="fil83" d="M6711 22478l90 -230c143,221 -67,89 219,224l48 -291c-243,-82 -217,-87 -398,-198 148,150 107,-62 333,151l88 -73c166,-74 246,-45 357,-193 1,-219 94,-90 -140,-230l156 -28 248 0 214 483 -193 346c-154,-144 149,-242 -357,-293l78 230 -286 -60 -79 170 -378 -8z"/>
   <path class="fil81" d="M8137 15898c-334,-40 -554,-113 -840,-236l-361 16 24 208c-154,-89 -268,-176 -406,-274 -366,-259 -269,-182 -331,-397 556,107 235,413 812,342l52 -195c272,32 421,38 588,231l338 47c0,2 -4,17 -4,20 4,209 -105,-171 10,59 0,0 94,136 118,179z"/>
   <path class="fil72" d="M5539 14767l115 -21 0 51 68 189c-165,-196 -152,-270 -426,-270l-60 -203c-279,-85 -57,52 -342,-56 -365,-205 -45,-432 -522,-250l9 -16c52,-30 93,-57 144,-72 55,-17 121,-20 172,-28 51,-7 87,-18 103,-27 17,-9 13,-16 28,-56 14,-40 47,-113 82,-182 8,-18 17,-36 26,-55 360,223 586,326 427,921l176 75z"/>
   <path class="fil8" d="M8664 13742c-240,2 -243,42 -462,-118 -181,-131 -205,-134 -162,-322 164,-80 834,-153 1028,-45 12,398 -220,152 -404,485z"/>
   <path class="fil84" d="M1191 20193c-44,67 75,73 -115,41 -232,-103 -204,-180 -123,-376l-17 299c296,-5 233,84 207,-247 -141,-76 19,-46 -183,-23l52 -196c-131,-233 -220,-758 -330,-862 -127,219 5,145 -112,362 -160,-172 -124,-245 -92,-470 654,-100 305,326 542,690 159,-200 90,-471 146,-761 -10,-88 -30,-67 58,-67 -7,303 24,1417 -33,1610z"/>
   <path class="fil85" d="M8945 2258c47,1285 568,371 792,1042l-228 156c52,245 136,415 370,481l-24 202c-353,-119 -230,-305 -509,-512 -19,-299 -127,-567 -388,-651 -33,-178 -108,-259 -127,-403 -9,-75 -4,-192 14,-264 73,-299 -7,-30 84,-164l16 113z"/>
   <path class="fil86" d="M4232 16734l0 68 -195 40 284 69 30 124 -118 41 -153 22c-113,-185 -17,-83 -150,-164 -255,113 -269,44 -408,238 127,140 -69,98 239,98l-271 29c-65,4 -125,13 -188,19l-46 -277c180,57 104,-45 170,-197 116,-268 111,-15 166,-257 164,-73 171,-80 355,-121 191,-42 303,-92 396,45 -342,-9 -329,-123 -512,167 172,72 190,57 401,56z"/>
   <path class="fil82" d="M9635 21479l47 457c-159,37 -252,78 -401,142 1,-24 -1,-47 1,-71l53 -280c-420,-12 -81,6 -340,80 -37,-279 93,-183 -58,-369l256 -194c196,-9 70,-63 208,54l-3 101c66,-185 35,-121 186,-204l51 284z"/>
   <path class="fil87" d="M10026 3024l-259 -32c-60,-92 -18,-137 -200,-140l-25 -161c-200,-122 -149,-87 -130,-343 345,-18 293,306 480,64l131 -33 66 21c-4,413 323,481 227,651l-290 -27z"/>
   <path class="fil88" d="M10631 8139c-152,42 -193,126 -236,290l-129 0 -30 -98 -129 -265c216,-28 252,-19 199,-221l223 9 9 -313 0 -225c253,293 522,488 442,930 -207,-101 -99,-59 -225,-304l-124 197z"/>
   <path class="fil52" d="M19543 9684l-17 -170 239 -103 9 -209c248,-106 112,-18 207,-222l-781 158c245,-230 559,-145 685,-230 205,-214 123,-345 256,-574l28 207c290,-10 110,-150 429,-311l-336 611c-98,373 -80,273 -382,446l-41 353 -296 44z"/>
   <path class="fil61" d="M6058 19096c120,2 140,-19 248,-34 371,-52 222,-13 302,180 -293,58 -180,72 -454,-18l-606 -99c47,249 -40,58 156,210l34 102c-314,-58 -256,-9 -522,99l55 -182 -190 20 7 -301 153 -134 817 157z"/>
   <path class="fil55" d="M988 17407l-61 561 -144 159c-17,-21 -47,-157 -56,-171 -98,-170 10,-58 -147,-138l32 -199 -60 -4c79,-214 79,-201 225,-269 -1,-178 -34,-177 53,-305l358 -539c157,447 -191,347 -200,905z"/>
   <path class="fil89" d="M4320 19221c104,-14 84,-23 154,113l-363 131 7 194c160,11 394,-131 455,333 -277,-207 -185,-74 -591,-116 -511,-53 -164,-151 -473,-289l88 -59c11,-5 32,-15 45,-21l170 -103c-235,-160 -135,80 -274,-195l343 -102c-111,167 -16,295 102,467 123,-161 17,3 88,-225 266,-14 107,51 249,-128z"/>
   <path class="fil8" d="M5691 16298l4 153c-283,67 -153,-62 -266,166 130,87 -46,65 192,36 -134,120 -66,59 -289,107l75 165c-453,-154 -664,-224 -1175,-123l0 -68 99 17c525,-191 565,47 734,-171 108,-139 96,6 29,-194 -135,260 56,197 -237,295l-12 -319 151 -56c97,112 -20,25 219,-19 215,-39 116,-37 315,23l161 -12z"/>
   <path class="fil7" d="M9819 1612l-544 -217c-136,147 -154,118 -252,286l66 245c112,565 42,121 132,385 63,188 -19,200 108,463l238 78c182,3 140,48 200,140 -1057,-145 -382,-522 -822,-734l-16 -113c91,-55 42,124 75,-131 30,-230 -127,-217 -53,-627 315,-167 383,-101 727,-103l141 328z"/>
   <path class="fil90" d="M1265 18211l-41 372c-88,0 -68,-21 -58,67 -341,-38 -313,-411 -239,-682l61 -561 259 -15c27,367 -41,404 -87,696 72,-171 64,-65 146,-83l-41 206z"/>
   <path class="fil91" d="M4883 15807c-89,333 -149,35 -166,433l262 -66 17 132 -151 56 12 319c293,-98 102,-35 237,-295 67,200 79,55 -29,194 -169,218 -209,-20 -734,171l118 -176 -106 -64c-93,-137 -205,-87 -396,-45 -184,41 -191,48 -355,121l-36 -108 162 -131 147 -13c261,-22 183,-42 414,99l76 -103 242 0c-8,-363 30,-272 259,-529l-45 -168 62 27 10 146z"/>
   <path class="fil92" d="M1188 15382l168 -633 100 -137c165,22 5,-4 126,52 21,-339 42,-270 144,-531 83,-210 -24,-421 206,-471l-152 600c-18,147 -66,286 -75,399 -13,157 17,203 -7,388 -123,356 -510,333 -510,333z"/>
   <path class="fil93" d="M7173 17219l-33 -4 -324 29c-31,-197 -347,-149 -572,-205 -258,-63 -372,9 -700,-33l-101 154 -152 21 2 -62 124 -39 -10 -155 695 11 39 -301c198,22 464,57 575,211 318,440 93,135 457,373z"/>
   <path class="fil94" d="M8929 2145c-91,134 -11,-135 -84,164 -18,72 -23,189 -14,264 19,144 94,225 127,403 -276,-90 88,-100 -319,-61l-157 -175c10,-22 48,-144 53,-149l27 2c3,0 20,4 23,4l65 -5c-69,-184 -19,-74 -47,-199 -1,-2 -12,-83 -19,-102 -61,-176 13,-37 -85,-148l97 -45 117 -554c115,-187 -13,-52 166,-155 -85,292 -99,395 -28,691l78 65z"/>
   <path class="fil37" d="M6816 17244l-193 28 -96 10c-240,30 -1095,37 -1297,-27l61 -74 152 -21 101 -154c328,42 442,-30 700,33 225,56 541,8 572,205z"/>
   <path class="fil47" d="M7806 14500l156 -180c-58,-47 -74,-95 -210,-142 -130,-44 -122,-22 -236,-18l-16 322 306 18zm-195 -608c158,253 235,169 466,314l-35 165c-85,115 -77,102 -236,129 -64,180 -353,127 -520,100l-10 -845 151 -46c56,158 60,103 184,183z"/>
   <path class="fil95" d="M3990 15412c-88,227 -112,161 -249,289 -267,168 5,192 -372,296 21,396 29,43 -71,406l-52 78 -157 56c19,-75 37,-141 55,-201 37,-103 83,-224 136,-353 27,-64 55,-130 85,-196 50,-98 109,-207 181,-349l15 -22 275 -259 84 2 70 253z"/>
   <path class="fil38" d="M11565 4408c-153,220 -508,49 -755,28 -272,-22 -501,12 -763,-88 -62,-121 -36,-65 -89,-139 -79,-110 -8,157 -67,-84 -7,-26 -24,-27 -35,-41 396,79 607,250 953,-54l320 74 -230 156 343 181 323 -33z"/>
   <path class="fil42" d="M7491 17470l-28 317 -68 47 7 219 -178 15 -32 -147 -125 15c-178,-79 -64,-25 -187,-47 -364,-63 -133,76 -277,-142 259,-85 503,-199 566,-464 181,83 61,-54 165,198l157 -11z"/>
   <path class="fil67" d="M9078 16446l-176 241c-115,-152 -85,-177 -115,-364 -152,186 -98,93 -272,230l32 138 -205 49 57 254 -188 -6 -104 -52c-134,-188 -184,-32 -222,-134 -6,-15 -26,-8 -37,-15 84,-43 50,-11 137,-26 102,-18 -10,31 140,-46l-174 -117 -39 -37 -24 -308c324,129 163,180 259,457 238,-12 77,108 293,-145l10 -113c70,-98 21,10 61,-121 1,-6 12,-136 12,-156l136 -22 114 30 125 243c188,-46 53,74 116,-153l64 173z"/>
   <path class="fil60" d="M3718 16348l-162 131c-197,190 30,110 -279,166l21 -242c100,-363 92,-10 71,-406 377,-104 105,-128 372,-296l9 181c453,-77 105,-176 447,-203l14 130c-129,143 -60,108 -318,88 -67,240 3,148 -184,270l9 181z"/>
   <path class="fil1" d="M21599 9397l-109 50c-157,185 -64,172 -114,273 -126,-18 -221,-106 -340,-211 -212,-187 -89,-91 -158,-280 123,-105 -74,-50 233,-144 450,-138 471,99 488,312z"/>
   <path class="fil4" d="M6281 15068l-173 -59c190,120 108,54 156,218 -273,36 -78,81 -333,-54l-60 -76c157,-115 84,36 110,-147l-327 -153 0 -51 51 -161 237 129c289,-120 208,-131 556,-45 -28,230 2,161 -154,324 -7,8 -26,46 -31,36 -6,-11 -23,25 -32,39z"/>
   <path class="fil96" d="M3761 17270c126,-127 358,-89 356,84l-578 168 467 60 20 109c-252,19 -275,-22 -514,31l51 166c-263,-298 -188,-145 -324,-541l-90 -350 107 44 46 277c63,-6 123,-15 188,-19l271 -29z"/>
   <path class="fil97" d="M10306 7845l-214 10 15 211 129 265c-305,-51 -271,-129 -577,28 56,176 109,317 78,540 -110,-127 -24,-90 -89,-277 -81,-228 -105,-93 -171,-288l63 -189c46,6 166,33 210,30 336,-18 129,27 231,-111 -15,-179 11,-112 -81,-190l5 -143 170 43c91,-231 -9,-64 229,-214l124 207 110 -226 -9 313 -223 -9z"/>
   <path class="fil49" d="M8499 2143c-16,167 -83,324 -126,454 -57,173 -58,282 -97,488l-146 0c-87,-739 3,-347 30,-795 259,-155 275,-328 395,-558 111,-211 -7,-49 158,-188l-117 554 -97 45z"/>
   <path class="fil98" d="M10361 1305c213,137 149,-21 303,227 -66,-11 -570,-93 -581,-97 -203,-80 -124,-108 -405,-151 -344,2 -412,-64 -727,103 -74,410 83,397 53,627 -33,255 16,76 -75,131l-78 -65c-71,-296 -57,-399 28,-691 165,-218 392,-185 649,-198 529,-27 450,80 833,114z"/>
   <path class="fil53" d="M7229 18746c-17,10 -39,21 -54,30l-95 55c-12,8 -26,16 -37,24 -73,50 -20,32 -73,66 -105,67 -106,40 -278,67l63 162 -117 -23c-121,-120 -227,-182 -351,-278 -213,-164 -355,-131 -377,-319 403,-48 665,277 1319,216z"/>
   <path class="fil90" d="M8279 3537c-79,126 -65,-121 -66,167 93,60 123,68 200,105 149,71 -82,63 188,53 276,-10 155,-90 397,43l-77 158c-306,-22 -389,32 -684,-85 -149,-37 -291,-173 -297,-322 -9,-201 -23,-118 124,-286 108,27 190,81 215,167z"/>
   <path class="fil8" d="M8088 7706c-254,44 -343,123 -290,410l221 6c146,-186 106,-179 69,-416zm92 606l-222 130 -269 -243c-11,-159 -47,-268 41,-411 117,-191 68,63 220,-239l159 -327c153,283 49,755 71,1090z"/>
   <path class="fil99" d="M10755 2125l-98 84c-229,118 -47,32 -219,188l-159 -70 -29 -163 -118 -120 97 -140 9 -193c310,32 290,-5 517,188l0 226z"/>
   <path class="fil100" d="M4474 21271l127 290c21,152 -30,257 15,450 21,91 105,238 106,237l-221 -41c-58,-66 -59,100 -265,-199 -108,-158 -163,-134 -176,-327 340,-80 97,103 478,-56l-253 -482 189 128z"/>
   <path class="fil75" d="M9511 12082l23 -79 209 -56 233 -1 9 325c-216,100 -11,87 -232,-23 -257,312 -251,98 -252,96 -43,566 -66,383 -223,433 -149,-290 123,-418 233,-695z"/>
   <path class="fil36" d="M10538 7316l0 225 -110 226 -124 -207c-238,150 -138,-17 -229,214l-170 -43 11 43 -9 -208c-14,-244 -38,-306 85,-478l-14 521c304,-225 315,-367 516,-564l69 -569c-53,346 -29,386 112,690 -15,11 -67,67 -75,75 -6,8 -26,30 -32,38 -6,7 -19,25 -30,37z"/>
   <path class="fil101" d="M11470 2622l-15 167c-238,-34 -118,-58 -274,58l-44 30 -85 -91c-97,28 -172,60 -287,65 -104,-306 44,-240 142,-522l169 56c206,13 279,66 394,237z"/>
   <path class="fil0" d="M5407 16925l10 155 -124 39c-113,-31 131,6 -74,22 -43,3 -3,26 -68,7 -146,-42 14,96 -110,-87l-720 -150 -284 -69 195 -40c511,-101 722,-31 1175,123z"/>
   <path class="fil64" d="M8958 2976l7 219 -360 -51c-151,-133 -153,-98 -329,-59 39,-206 40,-315 97,-488 43,-130 110,-287 126,-454 98,111 24,-28 85,148 7,19 18,100 19,102 28,125 -22,15 47,199l-65 5c-3,0 -20,-4 -23,-4l-27 -2c-5,5 -43,127 -53,149l157 175c407,-39 43,-29 319,61z"/>
   <path class="fil102" d="M23194 9586c-92,296 -297,5 -858,-137l-141 -57c201,-127 209,-70 463,-45 -289,-71 -332,-20 -490,-210 276,14 468,-44 642,176 214,271 123,100 384,273z"/>
   <path class="fil9" d="M9819 1612l114 62c-30,98 20,67 -61,60 -237,106 -28,68 -247,35 -133,108 -82,101 -178,86l-114 -32c-21,-5 -46,-15 -71,-20l-173 123 -66 -245c98,-168 116,-139 252,-286l544 217z"/>
   <path class="fil61" d="M5112 21071l12 210c-59,38 -64,39 -130,84 164,258 126,41 221,394 -260,-93 -90,76 -247,-154l-200 -8 -41 -29 -32 -345c183,-188 -102,-232 297,-284l120 132z"/>
   <path class="fil97" d="M5041 17061c-226,14 -190,-39 -382,111 255,187 373,42 534,115 256,117 75,30 190,165l-427 -94c-723,157 -441,-106 -723,-282l118 -41 -30 -124 720 150z"/>
   <path class="fil3" d="M4869 19006c-385,-100 -892,86 -1235,-100 93,-120 263,-179 406,-202 324,157 719,56 984,252l-155 50z"/>
   <path class="fil92" d="M2956 10926l-11 -186c54,-204 252,-392 425,-501 185,0 85,188 41,287 13,8 35,2 40,21 39,143 116,-89 117,187 -209,97 -413,64 -612,192z"/>
   <path class="fil82" d="M7983 18097l-93 -147c-131,304 6,113 -158,203l-63 -313c-3,-16 -6,-38 -12,-56l-194 3 28 -317 -11 -23 197 53 81 -126c368,484 213,160 225,723z"/>
   <path class="fil103" d="M3189 17347l20 351c-201,106 -7,27 -187,2l-207 -391 -34 -438c315,75 312,170 408,476z"/>
   <path class="fil104" d="M23059 8601c-480,20 -839,-375 -1270,13l-124 110c-129,-2 -233,16 -342,20 -303,10 -159,51 -309,-103l211 47c155,-110 684,-282 908,-312 278,-36 628,206 815,135 -164,-118 -52,5 -168,-177 107,17 155,-17 259,90 1,1 41,101 42,104 26,164 39,-28 -22,73z"/>
   <path class="fil105" d="M5530 16310c-199,-60 -100,-62 -315,-23 -239,44 -122,131 -219,19l-17 -132 -262 66c17,-398 77,-100 166,-433 244,195 28,29 312,103 108,29 204,99 295,155l-240 97c215,101 141,-6 280,148z"/>
   <path class="fil69" d="M3556 16479l36 108c-55,242 -50,-11 -166,257 -66,152 10,254 -170,197l-107 -44c-176,-270 -222,-72 -445,-368l221 80c12,5 22,9 31,11l41 15 92 -198 157 -56 52 -78 -21 242c309,-56 82,24 279,-166z"/>
   <path class="fil106" d="M2505 16506c-145,-70 -53,98 -132,-93 -122,4 -65,82 -168,-28 -278,-297 -101,-550 203,-835 -26,492 -29,497 97,956z"/>
   <path class="fil83" d="M6261 22135l-29 135 260 105c-118,184 -502,42 -661,-27l-83 -84 43 -172 -147 -27 13 -157c122,131 85,79 242,149l159 -161 16 178 187 61z"/>
   <path class="fil107" d="M7551 21351c116,-98 79,-52 68,-265l158 -9c30,-142 8,-149 31,-254 54,-246 29,-109 113,-205 -45,323 -2,598 155,873l-280 265c-110,-237 87,-297 -69,-562 -81,222 40,101 -103,292l-73 -135z"/>
   <path class="fil81" d="M9523 17116c-238,-57 -480,-53 -722,-5 94,126 146,48 53,197 -285,-260 -410,-56 -643,-320l188 6 -57 -254 205 -49 -7 34c136,146 89,57 247,156l-264 114c341,55 759,-63 1000,121z"/>
   <path class="fil35" d="M4894 14457l-79 63c-11,7 -62,41 -76,49 -98,56 -22,26 -120,50 -116,-284 1,6 -8,-258 -362,-3 311,119 -344,61 -98,228 -44,151 -277,178l28 -32c1,-12 3,-24 5,-36 46,-73 100,-151 160,-208 57,-53 119,-88 173,-118l16 1c477,-182 157,45 522,250z"/>
   <path class="fil40" d="M6603 17747l-259 19c-83,-187 -78,-154 -35,-326 -21,0 -51,-16 -63,4 -2,3 -111,23 -221,-71 288,7 261,77 502,-91l96 -10c-138,201 -85,73 -83,353 338,-52 80,-10 296,-173 245,-186 222,52 304,-237l33 4 -4 64c-63,265 -307,379 -566,464z"/>
   <path class="fil97" d="M5407 16925l-75 -165c223,-48 155,13 289,-107 124,-65 373,-81 520,-18l-39 301 -695 -11z"/>
   <path class="fil108" d="M11201 1827c83,160 57,293 121,457 77,199 147,105 214,338l-66 0c-115,-171 -188,-224 -394,-237l-141 -168 -23 -208c108,-125 102,-94 102,-279l187 97z"/>
   <path class="fil39" d="M10481 447c146,200 402,312 596,427l-159 -2 50 131c-119,-57 -68,-34 -137,-32 -154,-165 -308,-198 -511,-208 66,-169 71,-24 49,-157 -249,-104 -99,36 -333,-168 144,-123 9,-61 214,-102l231 111z"/>
   <path class="fil109" d="M580 17818c-70,395 -140,502 -102,903 -382,-173 -11,157 -364,-105l-17 -213c-35,-202 -11,-193 48,-371 20,-60 37,-138 51,-169 125,-284 -4,-78 153,-187 -56,224 -269,705 -168,907 441,-55 104,-742 371,-968l60 4 -32 199z"/>
   <path class="fil110" d="M10952 9340c-144,128 -159,236 -244,264 -308,100 -372,-205 -377,-218 144,-126 160,-109 384,-144l73 -230 156 12 -27 -18 35 334z"/>
   <path class="fil4" d="M5627 18403c-108,75 25,31 -134,57 -662,107 -4,-10 -382,109l-734 -56c115,-133 12,-76 145,-135 122,-55 882,-90 1105,25z"/>
   <path class="fil111" d="M3213 21432c68,186 76,91 -67,400 10,-104 -342,-670 -442,-1146l116 -9 393 755z"/>
   <path class="fil99" d="M7619 21086c11,213 48,167 -68,265l-135 -175 -66 122c-177,194 -74,219 -158,123l96 -445 130 -230 201 -126 0 466z"/>
   <path class="fil39" d="M23059 8601c-55,254 -80,84 0,326 -478,-253 -508,-264 -1106,-178 54,-121 112,-59 320,-74 136,-10 272,-27 409,-36 -616,-233 -385,-31 -893,-25 431,-388 790,7 1270,-13z"/>
   <path class="fil112" d="M23059 8927c177,-65 78,-35 86,23l82 145 16 133c-276,-64 -136,23 -301,-222 -216,-16 -205,-151 -440,-173 -160,-15 -453,72 -549,-84 598,-86 628,-75 1106,178z"/>
   <path class="fil62" d="M7543 18926c-108,-104 -90,-57 -200,-236l-40 -311 -206 -65 127 -246 178 -15c14,265 -20,393 98,606l197 -248c41,206 -6,340 -154,515z"/>
   <path class="fil58" d="M8214 5741c150,-266 208,-174 333,-403 125,-229 100,-246 336,-370 -148,382 7,420 -262,761 -193,-19 -187,-67 -407,12z"/>
   <path class="fil59" d="M10199 5950l-259 -1 -54 -312 395 -78c174,42 141,9 247,146 -64,143 -185,221 -329,245z"/>
   <path class="fil11" d="M4520 18244l-719 3 -129 -122c237,-139 331,-165 616,-94l511 140 -279 73z"/>
   <path class="fil113" d="M9078 16446l144 55c174,-146 -70,340 -77,358l144 71c-4,0 -150,10 -155,10l-92 -189 -502 -26 7 -34 -32 -138c174,-137 120,-44 272,-230 30,187 0,212 115,364l176 -241z"/>
   <path class="fil114" d="M8379 3305l244 291 138 153c-262,53 117,20 -129,19 -21,0 -36,-1 -57,-2 -341,-21 77,-52 -241,-41 -115,-109 -63,-1 -55,-188 -25,-86 -107,-140 -215,-167 -113,-100 -86,112 -92,-128 244,-84 197,-70 407,63z"/>
   <path class="fil101" d="M8498 7842c-106,-174 -72,-100 -110,-280 -76,-360 -29,-259 27,-351l354 314 -155 56c294,195 135,-136 262,204 -185,105 -148,76 -378,57z"/>
   <path class="fil9" d="M8292 8039l573 -45c-33,289 -71,367 -295,481 -173,-152 -225,-180 -278,-436z"/>
   <path class="fil40" d="M7464 21610l-156 28c234,140 141,11 140,230 -111,148 -191,119 -357,193 61,-297 -59,-410 101,-640 84,96 -19,71 158,-123 14,135 90,179 114,312z"/>
   <path class="fil115" d="M10144 9735c80,604 42,713 -303,689 -26,-275 22,-605 303,-689z"/>
   <path class="fil116" d="M6300 20723l0 30c-81,149 52,72 -125,173 204,212 106,-58 331,232 -482,317 -444,34 -632,-127 172,-78 7,-45 233,-9 -104,-176 -66,-67 -48,-294l241 -5z"/>
   <path class="fil0" d="M7584 16615c-300,5 -891,-363 -969,-395 -289,-121 -315,122 -277,-271 228,-12 53,-18 313,123l933 543z"/>
   <path class="fil102" d="M8998 3905c-242,-133 -121,-53 -397,-43 -270,10 -39,18 -188,-53 -77,-37 -107,-45 -200,-105 1,-288 -13,-41 66,-167 -8,187 -60,79 55,188 318,-11 -100,20 241,41 21,1 36,2 57,2 246,1 -133,34 129,-19l-138 -153 277 89c6,-281 -121,-284 -282,-491 94,40 284,197 355,269 72,73 114,134 103,229 -35,291 -59,-119 -78,213z"/>
   <path class="fil117" d="M3563 17888c123,82 61,-21 75,136l-313 -3 -273 -206 -30 -115c180,25 -14,104 187,-2l-20 -351 50 0c136,396 61,243 324,541z"/>
   <path class="fil117" d="M22556 9801l22 44 189 188 -29 125c-327,-79 -100,-96 -395,-205 -265,-97 -267,-4 -283,-276 182,-3 343,25 496,124z"/>
   <path class="fil118" d="M8618 3194c161,207 288,210 282,491l-277 -89 -244 -291 -91 -152c232,-32 120,-32 330,41z"/>
   <path class="fil106" d="M20926 8071l-79 118 -249 41c-319,161 -139,301 -429,311l-28 -207 494 -391c-10,207 -24,63 20,159l271 -31z"/>
   <path class="fil40" d="M4233 17076c-6,31 -1,131 -12,153 -82,173 100,-18 -104,125 2,-173 -230,-211 -356,-84 -308,0 -112,42 -239,-98 139,-194 153,-125 408,-238 133,81 37,-21 150,164l153 -22z"/>
   <path class="fil66" d="M7292 12073l145 84 -49 172c-256,28 -511,-310 -524,-551 309,41 252,69 428,295z"/>
   <path class="fil119" d="M3565 19182l-171 26 87 418c-156,-164 -71,-172 -283,-297l-1 20c-96,-258 -119,-186 -409,-290l75 -52c236,-62 105,-34 365,48 179,56 165,-3 337,127z"/>
   <path class="fil112" d="M11042 3354c-152,199 -107,195 -322,250 -260,-157 -217,24 -207,-309 104,-67 88,-114 326,-42l203 101z"/>
   <path class="fil47" d="M7543 18926l29 190c-174,113 -95,85 -110,239 -2,19 4,35 1,53 -20,167 34,13 -42,146l-44 -252 -89 127 -13 -163c-284,-81 -203,-63 -463,-12l-174 -127 117 23 620 47 -32 -507c110,179 92,132 200,236z"/>
   <path class="fil13" d="M4780 15415l-179 -67 -7 -298 -159 137 -115 -68 -56 -3 -72 -145 35 17 160 127 139 -264 235 86c71,241 56,61 -7,357l143 81 -117 40z"/>
   <path class="fil74" d="M11145 8124l365 4 -39 -294 225 70c-14,556 -327,610 -551,220z"/>
   <path class="fil98" d="M8618 3194c-210,-73 -98,-73 -330,-41l91 152c-210,-133 -163,-147 -407,-63 6,240 -21,28 92,128 -147,168 -133,85 -124,286 -120,-114 -196,-180 -103,-405 61,-151 159,-148 293,-166l146 0c176,-39 178,-74 329,59l13 50z"/>
   <path class="fil72" d="M5927 19521l-67 82c-146,-11 -198,-33 -320,7l-55 122 -356 -131 87 -65c266,-108 208,-157 522,-99l-34 -102 223 186z"/>
   <path class="fil94" d="M7663 11187l49 -158 160 13c141,218 207,142 171,418l-364 -5 -16 -268z"/>
   <path class="fil3" d="M8739 11681l-203 -4 -66 -352 479 -105c-48,224 -8,70 -142,272 -147,222 23,-23 -68,189z"/>
   <path class="fil120" d="M6623 17272l193 -28 324 -29c-82,289 -59,51 -304,237 -216,163 42,121 -296,173 -2,-280 -55,-152 83,-353z"/>
   <path class="fil121" d="M4264 15116l56 3 -24 170 -136 79 -170 44 -70 -253 -84 -2 1 -27c9,-7 17,-13 24,-19 45,-40 27,-58 18,-93 -5,-19 -7,-44 -8,-71l393 169z"/>
   <path class="fil60" d="M5748 22264l-180 164 -186 -110c-43,-250 134,-316 135,-318 101,-111 16,133 82,-122l58 30 -13 157 147 27 -43 172z"/>
   <path class="fil18" d="M5097 20902l91 121 -76 48 -120 -132c-399,52 -114,96 -297,284l-3 -85c-54,-93 16,-49 -102,-159l223 -189 -29 -150 165 162 161 -165c77,160 44,44 -13,265z"/>
   <path class="fil82" d="M4800 20096c27,-106 43,-152 66,-250 4,-20 12,-80 18,-99 43,-150 -5,-34 56,-131l29 170c258,53 230,122 302,351l-471 -41z"/>
   <path class="fil122" d="M7806 14500l-306 -18 16 -322c114,-4 106,-26 236,18 136,47 152,95 210,142l-156 180z"/>
   <path class="fil8" d="M10250 2164c-304,44 -19,7 -227,140l-177 -22 23 -164 59 -81c166,-103 138,-95 156,-295l154 -31 -9 193 -97 140 118 120z"/>
   <path class="fil113" d="M4331 16751l-99 -17c-211,1 -229,16 -401,-56 183,-290 170,-176 512,-167l106 64 -118 176z"/>
   <path class="fil60" d="M3197 19349l1 -20c86,200 137,165 144,422l-249 50 -73 -322 -6 -221 183 91z"/>
   <path class="fil123" d="M6822 12749l-220 -220c-14,-206 -71,-83 52,-217 232,125 361,196 371,460l-203 -23z"/>
   <path class="fil124" d="M3481 18856c-162,23 -298,27 -455,-10 -228,-53 -134,54 -155,-186l273 0 347 41 -10 155z"/>
   <path class="fil125" d="M3325 18021l-201 -25 -57 111c-138,168 -18,82 -207,134 -143,-120 -133,-130 -173,-302l337 22 28 -146 273 206z"/>
   <path class="fil126" d="M7488 12120l-51 37 8 -368 205 -61c85,183 131,189 135,407l-297 -15z"/>
   <path class="fil127" d="M6900 19567l234 67 -234 169c-256,-254 -290,-117 -384,-449l-245 -43 238 -12c186,153 200,102 391,268z"/>
   <path class="fil115" d="M8019 8122l-221 -6c-53,-287 36,-366 290,-410 37,237 77,230 -69,416z"/>
   <path class="fil128" d="M11257 3442l19 -202c-70,-59 -31,-38 -127,-86 0,0 -112,-41 -116,-43 285,-6 536,-31 713,197 -237,87 -203,-9 -489,134z"/>
   <path class="fil86" d="M3208 18308c56,-113 265,-90 432,-97l161 36 -5 132 -316 94 -272 -165z"/>
   <path class="fil81" d="M6141 16635c-147,-63 -396,-47 -520,18 -238,29 -62,51 -192,-36 113,-228 -17,-99 266,-166l-4 -153c178,104 96,101 205,179 207,150 68,-73 245,158z"/>
   <path class="fil35" d="M7196 19563c-34,87 76,30 -62,71l-234 -67c-3,-283 30,-284 345,-293 25,242 75,47 -49,289z"/>
   <path class="fil62" d="M10608 2620l-179 74c-128,-162 -127,-172 -150,-367l159 70c172,-156 -10,-70 219,-188l-49 411z"/>
   <path class="fil60" d="M4355 16331l-76 103c-231,-141 -153,-121 -414,-99 86,-217 -23,-120 112,-348 121,35 71,-63 160,174l116 46c21,151 -28,62 102,124z"/>
   <path class="fil68" d="M7032 15842l-72 44 -24 -208 361 -16 146 313c-310,-25 -157,-24 -411,-133z"/>
   <path class="fil129" d="M9222 16501l-144 -55 -64 -173c-63,227 72,107 -116,153l-125 -243 128 3 84 6 87 -239 115 106 -129 111c243,286 128,1 164,331z"/>
   <path class="fil61" d="M8175 21519c-39,-64 -92,-35 -88,-208 7,-333 8,-94 93,-211 21,12 163,-88 159,213 -3,259 -54,147 -164,206z"/>
   <path class="fil76" d="M20938 8094l-12 -23 -271 31c-44,-96 -30,48 -20,-159 10,-101 198,-67 299,-57l206 -43c-24,141 12,56 -70,135 -113,109 20,-79 -132,116z"/>
   <path class="fil37" d="M3509 19587l-28 39 -87 -418 171 -26 -27 27c139,275 39,35 274,195l-170 103c-13,6 -34,16 -45,21l-88 59z"/>
   <path class="fil130" d="M10288 11178l17 51c-133,14 -178,57 -233,-108 -97,-287 57,-222 122,-260 164,139 111,35 94,317z"/>
   <path class="fil39" d="M9579 16530c-251,-261 -24,-262 -392,-471l-115 -106 -87 239 -84 -6 91 -330 139 -1c229,245 319,344 448,675z"/>
   <path class="fil58" d="M7845 19167l-11 -255 -159 31c53,-169 -43,-80 112,-142 152,38 251,159 257,291l-199 75z"/>
   <path class="fil104" d="M23384 9229c-85,164 -267,84 -402,18l-40 -241c165,245 25,158 301,222l-16 -133 136 -5 21 139z"/>
   <path class="fil115" d="M7971 16066c-61,104 71,107 -180,110 -195,3 -189,-67 -247,-142 203,-62 262,-71 427,32z"/>
   <path class="fil57" d="M11672 2797l-58 141c-245,-122 -175,-107 -433,-91 156,-116 36,-92 274,-58l15 -167 66 0 136 175z"/>
   <path class="fil104" d="M953 19858l7 29c202,-23 42,-53 183,23 26,331 89,242 -207,247l17 -299z"/>
   <path class="fil99" d="M8450 16452l-10 113 -154 24c-16,-192 -23,-204 -116,-312 276,-96 163,-35 280,175z"/>
   <path class="fil126" d="M11880 4073c-217,21 -362,24 -471,-157 46,-186 -27,-120 201,-213l-66 234c205,128 181,77 336,136z"/>
   <polygon class="fil122" points="4727,21568 4601,21561 4474,21271 4695,21223 "/>
   <path class="fil69" d="M4601 15348c-121,-140 -63,-55 -168,-113 -92,114 -41,-20 -35,142l-238 -9 136 -79 24 -170 115 68 159 -137 7 298z"/>
   <path class="fil131" d="M21248 7887l-31 158 -279 49c152,-195 19,-7 132,-116 82,-79 46,6 70,-135l-206 43c83,-219 173,-123 314,1z"/>
   <path class="fil88" d="M10999 6904l-368 -69 -18 -183 103 -48c131,243 108,132 283,300z"/>
   <path class="fil38" d="M10023 2304l0 75 -131 33 -178 -52c53,-254 1,-153 155,-242l-23 164 177 22z"/>
   <path class="fil132" d="M10107 8066l-15 -211 214 -10c53,202 17,193 -199,221z"/>
   <path class="fil65" d="M6090 20475l-197 65 82 -147c198,-125 100,-176 287,-22l-172 104z"/>
   <path class="fil100" d="M5837 15932c2,-276 -19,-251 214,-217 -27,176 12,134 -214,217z"/>
   <path class="fil133" d="M684 19654c133,197 97,185 0,336 -114,-150 -160,-146 0,-336z"/>
   <path class="fil112" d="M1827 19437l33 -256c123,92 76,-123 128,173 -100,130 38,86 -161,83z"/>
   <path class="fil134" d="M6699 18153l76 -235c79,47 158,-102 103,127 -31,132 -80,74 -179,108z"/>
   <polygon class="fil135" points="10968,1003 10918,872 11077,874 11160,1057 "/>
   <path class="fil40" d="M6261 22135l-187 -61 -16 -178c128,81 151,72 203,239z"/>
   <path class="fil84" d="M9941 362l-16 87c-163,-37 -97,-1 -191,-119 182,-28 49,-46 207,32z"/>
   <polygon class="fil134" points="7067,17936 7037,18214 6948,17996 "/>
   <path class="fil107" d="M4227 14988l-35 -17c-216,-67 -120,-79 15,-155l20 172z"/>
   <path class="fil136" d="M13214 8305l-279 -250c185,48 200,92 279,250z"/>
   <path class="fil137" d="M22767 10033l-189 -188c162,51 136,53 189,188z"/>
   <polygon class="fil138" points="23227,9095 23145,8950 23254,8982 "/>
  </g>
 </g>
</svg>
